<svg xmlns="http://www.w3.org/2000/svg">
    <symbol id="logo" viewBox="0 0 188 63">
        <path d="M77.3175 7.37787C80.2149 7.37787 82.6394 8.3451 84.5912 10.2795C86.543 12.214 87.519 14.5952 87.519 17.4232C87.519 20.2251 86.543 22.6019 84.5912 24.5537C82.6481 26.5055 80.2756 27.4814 77.4737 27.4814C74.637 27.4814 72.2428 26.5099 70.291 24.5668C68.3392 22.6236 67.3633 20.2728 67.3633 17.5142C67.3633 15.6752 67.8057 13.9706 68.6906 12.4005C69.584 10.8304 70.7985 9.60292 72.3339 8.71811C73.8693 7.82461 75.5305 7.37787 77.3175 7.37787ZM77.4086 9.2516C75.9946 9.2516 74.6544 9.62027 73.3879 10.3576C72.1214 11.095 71.1325 12.0882 70.4212 13.3374C69.7098 14.5865 69.3542 15.9788 69.3542 17.5142C69.3542 19.787 70.1392 21.7084 71.7093 23.2786C73.2881 24.84 75.1879 25.6207 77.4086 25.6207C78.892 25.6207 80.2626 25.2607 81.5204 24.5407C82.7869 23.8207 83.7715 22.8362 84.4741 21.587C85.1855 20.3378 85.5411 18.9499 85.5411 17.4232C85.5411 15.9051 85.1855 14.5345 84.4741 13.3114C83.7715 12.0795 82.7782 11.095 81.4944 10.3576C80.2105 9.62027 78.8486 9.2516 77.4086 9.2516ZM91.3445 7.85931H95.157C97.343 7.85931 98.8177 7.95473 99.5811 8.14558C100.674 8.41449 101.568 8.96967 102.262 9.81112C102.956 10.6439 103.303 11.6935 103.303 12.96C103.303 14.2352 102.964 15.2892 102.288 16.1219C101.611 16.946 100.678 17.5012 99.49 17.7875C98.6225 17.9957 97.0004 18.0998 94.6235 18.0998H93.2573V27H91.3445V7.85931ZM93.2573 9.72003V16.226L96.4972 16.2651C97.8071 16.2651 98.7657 16.148 99.3729 15.9138C99.9801 15.6709 100.457 15.2848 100.804 14.7557C101.151 14.2179 101.325 13.6193 101.325 12.96C101.325 12.3181 101.151 11.7326 100.804 11.2034C100.457 10.6656 99.9975 10.2839 99.425 10.0583C98.8611 9.8328 97.9329 9.72003 96.6404 9.72003H93.2573ZM105.228 9.72003V7.85931H115.729V9.72003H111.461V27H109.509V9.72003H105.228ZM120.348 27H118.449V7.85931H128.038V9.74606H120.348V27ZM130.771 7.85931H134.583C136.769 7.85931 138.244 7.95473 139.008 8.14558C140.101 8.41449 140.994 8.96967 141.688 9.81112C142.382 10.6439 142.729 11.6935 142.729 12.96C142.729 14.2352 142.391 15.2892 141.714 16.1219C141.037 16.946 140.105 17.5012 138.916 17.7875C138.049 17.9957 136.427 18.0998 134.05 18.0998H132.684V27H130.771V7.85931ZM132.684 9.72003V16.226L135.924 16.2651C137.234 16.2651 138.192 16.148 138.799 15.9138C139.407 15.6709 139.884 15.2848 140.231 14.7557C140.578 14.2179 140.751 13.6193 140.751 12.96C140.751 12.3181 140.578 11.7326 140.231 11.2034C139.884 10.6656 139.424 10.2839 138.851 10.0583C138.288 9.8328 137.359 9.72003 136.067 9.72003H132.684ZM154.375 7.85931L163.301 27H161.245L158.239 20.7022H149.99L146.997 27H144.863L153.906 7.85931H154.375ZM154.141 11.9191L150.848 18.8545H157.394L154.141 11.9191ZM174.595 7.85931H176.508V10.3056H177.979C180.859 10.3056 182.858 10.8694 183.977 11.9971C185.096 13.1162 185.656 14.4607 185.656 16.0309C185.656 17.4622 185.161 18.7374 184.172 19.8564C183.192 20.9668 181.327 21.5219 178.577 21.5219H176.508V27H174.595V21.5219H172.54C171.082 21.5219 169.876 21.3831 168.922 21.1056C167.968 20.8193 167.148 20.2164 166.463 19.2969C165.786 18.3687 165.448 17.28 165.448 16.0309C165.448 14.4694 166.003 13.1248 167.113 11.9971C168.224 10.8694 170.232 10.3056 173.138 10.3056H174.595V7.85931ZM176.508 12.1533V19.6742H178.525L179.553 19.6872C180.889 19.6872 181.908 19.3403 182.611 18.6463C183.322 17.9436 183.678 17.0632 183.678 16.0048C183.678 14.8338 183.261 13.9012 182.429 13.2073C181.596 12.5046 180.338 12.1533 178.655 12.1533H176.508ZM174.595 12.1533H172.448C170.878 12.1533 169.647 12.4873 168.753 13.1552C167.868 13.8145 167.426 14.76 167.426 15.9918C167.426 17.0501 167.777 17.9306 168.48 18.6333C169.182 19.3359 170.232 19.6872 171.629 19.6872L172.592 19.6742H174.595V12.1533Z"/>
        <path d="M86.0226 36.7544L84.5132 37.9124C83.6804 36.8281 82.6785 36.0083 81.5074 35.4532C80.345 34.8893 79.0655 34.6074 77.6688 34.6074C76.1421 34.6074 74.7281 34.9761 73.4269 35.7134C72.1257 36.4421 71.1151 37.4267 70.3951 38.6671C69.6838 39.8989 69.3281 41.2869 69.3281 42.831C69.3281 45.1645 70.1262 47.1119 71.7224 48.6734C73.3272 50.2348 75.3484 51.0155 77.786 51.0155C80.4664 51.0155 82.7088 49.9659 84.5132 47.8666L86.0226 49.0117C85.0684 50.2262 83.8756 51.1674 82.4443 51.8353C81.0216 52.4946 79.4298 52.8242 77.6688 52.8242C74.3204 52.8242 71.679 51.7095 69.7445 49.4801C68.1224 47.5977 67.3113 45.325 67.3113 42.6618C67.3113 39.8599 68.2915 37.5047 70.252 35.5963C72.2211 33.6792 74.6848 32.7206 77.6428 32.7206C79.4298 32.7206 81.0433 33.0763 82.4833 33.7876C83.9233 34.4903 85.1031 35.4792 86.0226 36.7544ZM89.9262 33.2021H93.6997C95.2177 33.2021 96.3845 33.3843 97.1999 33.7486C98.0153 34.1043 98.6572 34.6551 99.1257 35.4011C99.6028 36.1471 99.8413 36.9756 99.8413 37.8864C99.8413 38.7365 99.6331 39.5129 99.2168 40.2156C98.8004 40.9095 98.1888 41.4734 97.3821 41.9071C98.3797 42.2454 99.1474 42.6445 99.6852 43.1042C100.223 43.5553 100.639 44.1062 100.934 44.7568C101.238 45.3987 101.39 46.097 101.39 46.8517C101.39 48.3871 100.826 49.6883 99.6982 50.7553C98.5792 51.8136 97.0741 52.3428 95.183 52.3428H89.9262V33.2021ZM91.7999 35.0758V41.2045H92.8929C94.2201 41.2045 95.196 41.083 95.8206 40.8401C96.4452 40.5886 96.9397 40.1982 97.304 39.6691C97.6683 39.1312 97.8505 38.537 97.8505 37.8864C97.8505 37.0103 97.5425 36.325 96.9266 35.8305C96.3194 35.3274 95.3479 35.0758 94.012 35.0758H91.7999ZM91.7999 43.1303V50.469H94.1681C95.5647 50.469 96.5883 50.3346 97.2389 50.0657C97.8895 49.7881 98.41 49.3587 98.8004 48.7775C99.1994 48.1963 99.3989 47.5674 99.3989 46.8907C99.3989 46.0406 99.1213 45.2989 98.5662 44.6657C98.011 44.0324 97.2476 43.5987 96.276 43.3645C95.6254 43.2083 94.4934 43.1303 92.8799 43.1303H91.7999ZM105.189 33.2021H116.158V35.0888H107.102V41.0744H116.08V42.9481H107.102V50.456H116.08V52.3428H105.189V33.2021ZM117.564 35.0628V33.2021H128.064V35.0628H123.796V52.3428H121.845V35.0628H117.564Z"/>
        <path d="M32.2107 7.68469C24.112 7.68469 22.7009 21.1825 23.0076 27.9315C28.1614 13.9428 46.0153 25.1706 54.2981 32.533C51.5372 20.569 41.4138 7.68469 32.2107 7.68469Z" fill="#FF7770"/>
        <path d="M12.0162 45.7177C16.4221 52.5131 28.5154 46.3539 34.0113 42.4249C19.4701 45.7108 19.1778 24.6219 20.8494 13.6667C12.3128 22.4921 7.00942 37.9957 12.0162 45.7177Z" fill="#DD1E24"/>
        <path d="M54.2711 43.3395C57.9618 36.1306 46.5901 28.7233 40.4429 25.9208C50.5459 36.8831 32.4155 47.6588 22.0874 51.6763C33.9951 54.6709 50.0771 51.5314 54.2711 43.3395Z" fill="#9F1D20"/>
    </symbol>
    <symbol id="shop" viewBox="0 0 40 40">
        <path d="M20.0003 21.5374C17.4558 21.5374 15.385 19.4667 15.385 16.9222V13.0761C15.385 12.6516 15.7296 12.3069 16.1542 12.3069H23.8462C24.2708 12.3069 24.6154 12.6516 24.6154 13.0761V16.9222C24.6155 19.4667 22.5448 21.5374 20.0003 21.5374ZM16.9234 13.8453V16.9222C16.9234 18.6191 18.3034 19.9991 20.0003 19.9991C21.6971 19.9991 23.0771 18.6191 23.0771 16.9222V13.8453H16.9234Z"/>
        <path d="M12.3081 21.5374C9.76361 21.5374 7.69287 19.4667 7.69287 16.9222V13.0761C7.69287 12.6516 8.03749 12.3069 8.46207 12.3069H16.1541C16.5787 12.3069 16.9233 12.6516 16.9233 13.0761C16.9233 13.5007 16.5787 13.8453 16.1541 13.8453H9.23126V16.9222C9.23126 18.6191 10.6112 19.9991 12.3081 19.9991C14.005 19.9991 15.385 18.6191 15.385 16.9222C15.385 16.4976 15.7296 16.153 16.1542 16.153C16.5788 16.153 16.9234 16.4976 16.9234 16.9222C16.9234 19.4667 14.8527 21.5374 12.3081 21.5374Z"/>
        <path d="M4.6161 21.5374C2.07159 21.5374 0.000854492 19.4667 0.000854492 16.9222V13.0761C0.000854492 12.6516 0.345469 12.3069 0.77005 12.3069H8.46208C8.88666 12.3069 9.23128 12.6516 9.23128 13.0761C9.23128 13.5007 8.88666 13.8453 8.46208 13.8453H1.53925V16.9222C1.53925 18.6191 2.91923 19.9991 4.6161 19.9991C6.31298 19.9991 7.69296 18.6191 7.69296 16.9222C7.69296 16.4976 8.03758 16.153 8.46216 16.153C8.88674 16.153 9.23135 16.4976 9.23135 16.9222C9.23135 19.4667 7.16061 21.5374 4.6161 21.5374Z"/>
        <path d="M27.6923 21.5374C25.1478 21.5374 23.077 19.4667 23.077 16.9222C23.077 16.4976 23.4216 16.153 23.8462 16.153C24.2708 16.153 24.6154 16.4976 24.6154 16.9222C24.6154 18.6191 25.9954 19.9991 27.6923 19.9991C29.3891 19.9991 30.7691 18.6191 30.7691 16.9222V13.8453H23.8463C23.4217 13.8453 23.0771 13.5007 23.0771 13.0761C23.0771 12.6516 23.4217 12.3069 23.8463 12.3069H31.5383C31.9629 12.3069 32.3075 12.6516 32.3075 13.0761V16.9222C32.3075 19.4667 30.2369 21.5374 27.6923 21.5374Z"/>
        <path d="M35.3844 21.5374C32.8398 21.5374 30.7691 19.4667 30.7691 16.9222C30.7691 16.4976 31.1137 16.153 31.5383 16.153C31.9629 16.153 32.3075 16.4976 32.3075 16.9222C32.3075 18.6191 33.6875 19.9991 35.3844 19.9991C37.0812 19.9991 38.4612 18.6191 38.4612 16.9222V13.8453H31.5384C31.1138 13.8453 30.7692 13.5007 30.7692 13.0761C30.7692 12.6516 31.1138 12.3069 31.5384 12.3069H39.2304C39.655 12.3069 39.9996 12.6516 39.9996 13.0761V16.9222C39.9995 19.4667 37.9289 21.5374 35.3844 21.5374Z"/>
        <path d="M8.46215 13.8454C8.36065 13.8454 8.25754 13.8254 8.15909 13.7823C7.76834 13.6146 7.58679 13.1623 7.75452 12.7731L12.3698 2.00577C12.5359 1.61502 12.9929 1.43347 13.3789 1.6012C13.7697 1.76892 13.9512 2.22115 13.7835 2.61037L9.16826 13.3777C9.04361 13.6716 8.76056 13.8454 8.46215 13.8454Z"/>
        <path d="M16.1541 13.8454C16.1188 13.8454 16.0818 13.8439 16.0449 13.8377C15.6249 13.7777 15.3326 13.3884 15.3926 12.9669L16.931 2.19955C16.9911 1.77955 17.3864 1.49031 17.8018 1.54729C18.2218 1.60732 18.5141 1.99654 18.4541 2.41807L16.9157 13.1854C16.8602 13.5685 16.5326 13.8454 16.1541 13.8454Z"/>
        <path d="M23.8463 13.8453C23.4694 13.8453 23.1402 13.5684 23.0848 13.1854L21.5463 2.41801C21.4863 1.99801 21.7786 1.60726 22.1986 1.54723C22.6139 1.48262 23.0093 1.77949 23.0694 2.19949L24.6078 12.9669C24.6678 13.3869 24.3755 13.7776 23.9555 13.8376C23.9185 13.8438 23.8816 13.8453 23.8463 13.8453Z"/>
        <path d="M31.5383 13.8453C31.2398 13.8453 30.9568 13.6715 30.8322 13.3792L26.2169 2.61182C26.0493 2.2226 26.2308 1.77029 26.6215 1.60264C27.0062 1.43339 27.463 1.61494 27.6307 2.00722L32.2459 12.7746C32.4136 13.1638 32.2321 13.6161 31.8414 13.7838C31.7429 13.8253 31.6398 13.8453 31.5383 13.8453Z"/>
        <path d="M39.2303 13.8451C38.9904 13.8451 38.7534 13.7328 38.6042 13.5236L31.1429 3.07776H8.85746L1.39464 13.5236C1.14847 13.8697 0.668517 13.9513 0.322375 13.7021C-0.0237664 13.4544 -0.103733 12.9744 0.143882 12.6298L7.83599 1.86244C7.98057 1.65936 8.21291 1.53937 8.46213 1.53937H31.5383C31.7875 1.53937 32.0199 1.65936 32.1644 1.86092L39.8565 12.6283C40.1042 12.9744 40.0226 13.4544 39.6781 13.7005C39.5426 13.799 39.3858 13.8451 39.2303 13.8451Z"/>
        <path d="M36.1536 38.4616H3.84689C3.42231 38.4616 3.0777 38.1169 3.0777 37.6924V23.8451C3.0777 23.4205 3.42231 23.0759 3.84689 23.0759C4.27147 23.0759 4.61609 23.4205 4.61609 23.8451V36.9232H35.3844V23.8451C35.3844 23.4205 35.729 23.0759 36.1536 23.0759C36.5781 23.0759 36.9228 23.4205 36.9228 23.8451V37.6924C36.9228 38.1169 36.5781 38.4616 36.1536 38.4616Z"/>
        <path d="M31.5383 38.46C31.1137 38.46 30.7691 38.1154 30.7691 37.6908V26.1526H24.6155V37.6907C24.6155 38.1153 24.2709 38.4599 23.8463 38.4599C23.4217 38.4599 23.0771 38.1153 23.0771 37.6907V25.3835C23.0771 24.9589 23.4217 24.6143 23.8463 24.6143H31.5383C31.9629 24.6143 32.3075 24.9589 32.3075 25.3835V37.6907C32.3075 38.1154 31.9629 38.46 31.5383 38.46Z"/>
        <path d="M17.6926 32.3079H10.0005C9.57594 32.3079 9.23132 31.9633 9.23132 31.5387V25.385C9.23132 24.9605 9.57594 24.6158 10.0005 24.6158H17.6926C18.1171 24.6158 18.4617 24.9605 18.4617 25.385V31.5387C18.4618 31.9633 18.1172 32.3079 17.6926 32.3079ZM10.7697 30.7694H16.9234V26.1542H10.7697V30.7694Z"/>
        <path d="M39.2303 38.4615H36.1535C35.7289 38.4615 35.3843 38.1169 35.3843 37.6923C35.3843 37.2677 35.7289 36.9231 36.1535 36.9231H39.2303C39.6549 36.9231 39.9995 37.2677 39.9995 37.6923C39.9995 38.1169 39.655 38.4615 39.2303 38.4615Z"/>
        <path d="M3.84691 38.4615H0.77005C0.345469 38.4615 0.000854492 38.1169 0.000854492 37.6923C0.000854492 37.2677 0.345469 36.9231 0.77005 36.9231H3.84691C4.27149 36.9231 4.6161 37.2677 4.6161 37.6923C4.6161 38.1169 4.27149 38.4615 3.84691 38.4615Z"/>
    </symbol>
    <symbol id="peoples" viewBox="0 0 40 40">
        <path d="M35.8227 26.5759L33.2153 25.9529V25.0371C34.6555 24.1863 35.6241 22.6186 35.6241 20.8281V17.3713C35.6241 14.6774 33.4323 12.4856 30.7383 12.4856H30.198C28.7597 12.4856 27.4648 13.1107 26.57 14.1031C25.7033 11.298 23.086 9.25406 20 9.25406C16.9141 9.25406 14.2968 11.2979 13.4301 14.1031C12.5353 13.1107 11.2404 12.4856 9.80206 12.4856H9.26174C6.56775 12.4856 4.37587 14.6774 4.37587 17.3713V20.8281C4.37587 22.6185 5.34455 24.1863 6.78471 25.0371V25.9529L4.17736 26.5759C1.71845 27.1634 0.00109863 29.3393 0.00109863 31.8673V34.219C0.00109863 34.6504 0.350943 35.0002 0.782272 35.0002H7.09182C7.05228 35.3082 7.03189 35.6217 7.03189 35.9393V38.4376H2.3447C1.91329 38.4376 1.56352 38.7874 1.56352 39.2187C1.56352 39.6501 1.91337 39.9999 2.3447 39.9999H37.6552C38.0866 39.9999 38.4364 39.6501 38.4364 39.2187C38.4364 38.7873 38.0866 38.4376 37.6552 38.4376H32.968V35.943C32.968 35.624 32.9475 35.3093 32.9076 35.0003H39.2177C39.6491 35.0003 39.9988 34.6504 39.9988 34.2191V31.8674C39.9989 29.3393 38.2815 27.1633 35.8227 26.5759ZM26.8747 17.3713C26.8747 15.5388 28.3655 14.048 30.1981 14.048H30.7384C32.571 14.048 34.0619 15.5388 34.0619 17.3713V17.5717C32.9345 17.5579 31.8413 17.2257 30.8961 16.6072C30.6362 16.437 30.3004 16.437 30.0406 16.6072C29.0954 17.2258 28.0022 17.558 26.8748 17.5717V17.3713H26.8747ZM26.8747 20.191V19.1342C28.1395 19.122 29.3709 18.7927 30.4682 18.1746C31.5655 18.7927 32.7969 19.122 34.0617 19.1342V20.8282C34.0617 22.6608 32.5708 24.1517 30.7383 24.1517H30.198C28.3654 24.1517 26.8745 22.6608 26.8745 20.8282V20.191H26.8747ZM28.3729 29.1828C28.0555 29.0579 27.7267 28.9527 27.3866 28.8714L24.9038 28.2782C25.088 28.2025 25.2784 28.1403 25.474 28.0935L27.9418 27.5021L28.3729 29.1828ZM27.7262 25.0401V25.9471L25.1099 26.5741C24.5442 26.7096 24.0083 26.9337 23.5194 27.2359V26.0942C24.5902 25.4533 25.4729 24.5297 26.0638 23.4271C26.4809 24.0883 27.0517 24.6428 27.7262 25.0401ZM25.3123 20.191C25.3123 23.1201 22.9293 25.5032 20.0001 25.5032C17.071 25.5032 14.6879 23.1201 14.6879 20.191V17.9025H15.5465C17.7397 17.9025 19.8293 17.2027 21.5471 15.9317L21.7261 16.1993C22.4394 17.2657 23.6315 17.9025 24.9145 17.9025H25.3124V20.191H25.3123ZM14.6878 16.1286C14.6878 13.1995 17.0708 10.8165 20 10.8165C22.9291 10.8165 25.3122 13.1995 25.3122 16.1287V16.3401H24.9143C24.1539 16.3401 23.4474 15.9627 23.0246 15.3306L22.7357 14.8988C22.9699 14.6611 23.1943 14.4113 23.4068 14.1484C23.678 13.8129 23.6258 13.321 23.2902 13.0498C22.9549 12.7786 22.4629 12.8307 22.1916 13.1664C20.5617 15.1833 18.1396 16.34 15.5464 16.34H14.6878V16.1286ZM13.9362 23.4271C14.5284 24.5322 15.4138 25.4575 16.4878 26.0985V27.2403C15.997 26.9358 15.4585 26.7104 14.89 26.5742L12.2738 25.9472V25.0402C12.9482 24.6428 13.519 24.0883 13.9362 23.4271ZM15.0876 28.2748L12.6082 28.8689C12.2703 28.95 11.9435 29.0546 11.628 29.1787L12.0582 27.5022L14.5259 28.0936C14.7185 28.1397 14.906 28.2007 15.0876 28.2748ZM5.93838 17.3713C5.9383 15.5388 7.42916 14.048 9.26174 14.048H9.80206C11.6346 14.048 13.1255 15.5388 13.1255 17.3713V17.5717C11.9982 17.5579 10.9049 17.2257 9.95971 16.6072C9.69987 16.437 9.36401 16.437 9.10424 16.6072C8.159 17.2258 7.06588 17.558 5.93845 17.5717V17.3713H5.93838ZM5.9383 20.8282V19.1342C7.20314 19.122 8.43455 18.7927 9.53182 18.1746C10.6291 18.7927 11.8605 19.122 13.1253 19.1342V20.191V20.8282C13.1253 22.6608 11.6345 24.1517 9.8019 24.1517H9.26159C7.42916 24.1517 5.9383 22.6608 5.9383 20.8282ZM7.47268 33.4381H1.56352V33.4379V31.8674C1.56352 30.0654 2.78767 28.5143 4.54033 28.0957L7.0001 27.508L8.16221 32.0379C7.88408 32.476 7.65229 32.945 7.47268 33.4381ZM8.34721 25.6269C8.64362 25.6833 8.94908 25.714 9.26166 25.714H9.80198C10.1128 25.714 10.4165 25.6836 10.7114 25.6278V26.4646L9.73244 30.2798C9.61807 30.3719 9.50573 30.4664 9.39752 30.565L8.34721 26.4708V25.6269ZM8.5944 38.4376V35.9395C8.5944 34.045 9.51432 32.339 10.98 31.2939L18.1238 38.4376H8.5944ZM12.4399 30.5441C12.6134 30.4845 12.7907 30.4318 12.9724 30.3883L16.7033 29.4943L18.537 36.6412L12.4399 30.5441ZM18.0501 28.4568V26.7836C18.6686 26.9668 19.3229 27.0657 20 27.0657C20.6797 27.0657 21.3364 26.9661 21.957 26.7815V28.4657L20.0048 36.0752L18.0501 28.4568ZM23.304 29.5025L27.0237 30.3911C27.2108 30.4358 27.3932 30.4903 27.5718 30.5521L21.4692 36.6547L23.304 29.5025ZM31.4056 38.4376H21.8958L29.0291 31.3043C30.4895 32.3497 31.4056 34.0522 31.4056 35.9431V38.4376ZM31.653 26.471L30.6019 30.5679C30.4942 30.4699 30.3825 30.376 30.2687 30.2843L29.2887 26.4647V25.628C29.5836 25.6838 29.8873 25.7142 30.1981 25.7142H30.7384C31.0511 25.7142 31.3566 25.6835 31.653 25.6271V26.471ZM38.4365 33.4379H32.5262C32.3465 32.9456 32.1149 32.4775 31.8372 32.04L32.9998 27.5079L35.4596 28.0956C37.2123 28.5143 38.4364 30.0654 38.4364 31.8673V33.4379H38.4365Z"/>
        <path d="M19.9999 0C19.5686 0 19.2188 0.349844 19.2188 0.781173V4.12602C19.2188 4.55751 19.5685 4.9072 19.9999 4.9072C20.4313 4.9072 20.7811 4.55735 20.7811 4.12602V0.781173C20.7812 0.349844 20.4313 0 19.9999 0Z"/>
        <path d="M20.5521 6.29028C20.4069 6.14504 20.2053 6.06137 19.9999 6.06137C19.7936 6.06137 19.5928 6.14496 19.4475 6.29028C19.3022 6.43559 19.2186 6.63645 19.2186 6.84262C19.2186 7.04809 19.3021 7.24965 19.4475 7.39497C19.5928 7.54028 19.7944 7.62387 19.9999 7.62387C20.2053 7.62387 20.4069 7.54028 20.5521 7.39497C20.6975 7.24887 20.7811 7.04809 20.7811 6.84262C20.7811 6.63637 20.6975 6.43559 20.5521 6.29028Z"/>
        <path d="M14.8051 6.46754L11.9105 3.57355C11.6054 3.26847 11.1108 3.26863 10.8056 3.57371C10.5006 3.87878 10.5007 4.3734 10.8058 4.67855L13.7005 7.57254C13.853 7.72505 14.053 7.8013 14.2528 7.8013C14.4528 7.8013 14.6527 7.72497 14.8053 7.57239C15.1102 7.26739 15.1102 6.7727 14.8051 6.46754Z"/>
        <path d="M29.3112 3.45211C29.0061 3.14727 28.5117 3.14711 28.2064 3.45211L25.1354 6.52298C24.8303 6.82806 24.8303 7.32267 25.1354 7.62782C25.2881 7.7804 25.488 7.85665 25.6879 7.85665C25.8878 7.85665 26.0878 7.78032 26.2403 7.62782L29.3113 4.55696C29.6163 4.25188 29.6163 3.75719 29.3112 3.45211Z"/>
    </symbol>
    <symbol id="circle" viewBox="0 0 40 40">
        <path d="M20 1.25C16.2916 1.25 12.6665 2.34967 9.58307 4.40994C6.49965 6.47022 4.09641 9.39857 2.67727 12.8247C1.25812 16.2508 0.886811 20.0208 1.61028 23.6579C2.33376 27.2951 4.11952 30.636 6.74176 33.2583C9.36399 35.8805 12.7049 37.6663 16.3421 38.3897C19.9792 39.1132 23.7492 38.7419 27.1753 37.3227C30.6014 35.9036 33.5298 33.5004 35.5901 30.4169C37.6503 27.3335 38.75 23.7084 38.75 20C38.7444 15.0289 36.7671 10.263 33.2521 6.74796C29.737 3.23287 24.9711 1.25562 20 1.25ZM20 37.5C17.8341 37.5014 15.6869 37.0987 13.6688 36.3125L14.7038 32.6875C16.3815 33.3886 18.1817 33.7497 20 33.7497C21.8183 33.7497 23.6186 33.3886 25.2963 32.6875L26.3313 36.3125C24.3131 37.0987 22.1659 37.5014 20 37.5ZM7.50001 20C7.50001 17.5277 8.23312 15.111 9.60664 13.0554C10.9802 10.9998 12.9324 9.3976 15.2165 8.45151C17.5005 7.50541 20.0139 7.25787 22.4386 7.74018C24.8634 8.2225 27.0907 9.41301 28.8388 11.1612C30.587 12.9093 31.7775 15.1366 32.2598 17.5614C32.7421 19.9861 32.4946 22.4995 31.5485 24.7835C30.6024 27.0676 29.0003 29.0199 26.9446 30.3934C24.889 31.7669 22.4723 32.5 20 32.5C16.686 32.4962 13.5088 31.178 11.1654 28.8346C8.822 26.4913 7.50381 23.314 7.50001 20ZM27.4894 35.8125L26.4413 32.1431C28.6292 30.9839 30.4633 29.2551 31.7497 27.1394C33.0361 25.0238 33.7269 22.5998 33.7492 20.1239C33.7715 17.6479 33.1244 15.2119 31.8763 13.0734C30.6282 10.9349 28.8255 9.17338 26.6588 7.975L28.5669 6.06687L27.6831 5.18313L25.4756 7.39062C22.8359 6.24188 19.9021 5.95117 17.0883 6.55952C14.2745 7.16787 11.7227 8.64456 9.79333 10.7812C7.86391 12.9178 6.65424 15.6063 6.33505 18.4674C6.01586 21.3285 6.60327 24.2176 8.01438 26.7269L5.80813 28.9331L6.69188 29.8169L8.69501 27.8169C9.9492 29.626 11.6165 31.1101 13.5588 32.1462L12.5106 35.8125C10.7557 34.9769 9.15162 33.8558 7.76376 32.495L9.19188 31.0669L8.30813 30.1831L6.90251 31.5887C4.37161 28.7282 2.84634 25.118 2.55953 21.3093C2.27273 17.5007 3.24015 13.7028 5.31412 10.4954C7.38809 7.28812 10.4546 4.8476 14.0456 3.54645C17.6366 2.2453 21.5548 2.15501 25.2019 3.28938L23.3081 5.18313L24.1919 6.06687L26.5044 3.75437C29.6666 5.01828 32.3911 7.17769 34.3437 9.9677C36.2964 12.7577 37.3922 16.057 37.4968 19.4608C37.6014 22.8646 36.7102 26.225 34.9325 29.1296C33.1548 32.0342 30.568 34.3568 27.4894 35.8125Z"/>
        <path d="M15.7994 34.4044L15.4507 35.6044C18.427 36.4664 21.5871 36.4649 24.5626 35.6L24.2119 34.4C21.4643 35.1946 18.5479 35.1961 15.7994 34.4044Z"/>
        <path d="M35 20H36.25C36.26 16.4824 35.1185 13.0581 33 10.25L32 11C33.9562 13.5918 35.0099 16.7529 35 20Z"/>
        <path d="M35 21.25H36.25V22.5H35V21.25Z"/>
    </symbol>
    <symbol id="calc" viewBox="0 0 40 40">
        <path d="M35.4871 1.53845H4.51284C2.87276 1.53845 1.53845 2.87276 1.53845 4.51284V35.4872C1.53845 37.1272 2.87276 38.4615 4.51284 38.4615H35.4872C37.1272 38.4615 38.4615 37.1272 38.4615 35.4872V4.51284C38.4615 2.87276 37.1272 1.53845 35.4871 1.53845ZM36.9231 4.51284V19.2308H20.7692V3.07691H35.4871C36.2789 3.07691 36.9231 3.72107 36.9231 4.51284ZM4.51284 3.07691H19.2308V19.2308H3.07691V4.51284C3.07691 3.72107 3.72107 3.07691 4.51284 3.07691ZM3.07691 35.4872V20.7692H19.2308V36.9231H4.51284C3.72107 36.9231 3.07691 36.2789 3.07691 35.4872ZM35.4871 36.9231H20.7692V20.7692H36.9231V35.4872C36.9231 36.2789 36.2789 36.9231 35.4871 36.9231Z"/>
        <path d="M6.92304 12.3077H10.7692V16.1538C10.7692 16.5787 11.1136 16.9231 11.5384 16.9231C11.9633 16.9231 12.3077 16.5787 12.3077 16.1538V12.3077H16.1538C16.5787 12.3077 16.923 11.9633 16.923 11.5385C16.923 11.1136 16.5787 10.7692 16.1538 10.7692H12.3077V6.92307C12.3077 6.49822 11.9633 6.15384 11.5384 6.15384C11.1136 6.15384 10.7692 6.49822 10.7692 6.92307V10.7692H6.92304C6.49819 10.7692 6.15381 11.1136 6.15381 11.5385C6.15381 11.9633 6.49819 12.3077 6.92304 12.3077Z"/>
        <path d="M12.6264 28.4615L15.346 25.7419C15.6464 25.4415 15.6464 24.9544 15.346 24.654C15.0456 24.3537 14.5585 24.3537 14.2581 24.654L11.5384 27.3736L8.81883 24.654C8.51844 24.3537 8.03137 24.3537 7.73098 24.654C7.4306 24.9544 7.43052 25.4414 7.73098 25.7419L10.4505 28.4615L7.7309 31.1811C7.43052 31.4815 7.43052 31.9686 7.7309 32.2691C8.03137 32.5694 8.51837 32.5694 8.81875 32.2691L11.5384 29.5494L14.2581 32.2691C14.5585 32.5694 15.0455 32.5694 15.3459 32.2691C15.6463 31.9687 15.6464 31.4816 15.3459 31.1811L12.6264 28.4615Z"/>
        <path d="M23.8463 12.3077H33.077C33.5018 12.3077 33.8463 11.9633 33.8463 11.5385C33.8463 11.1136 33.5018 10.7692 33.077 10.7692H23.8463C23.4215 10.7692 23.077 11.1136 23.077 11.5385C23.077 11.9633 23.4215 12.3077 23.8463 12.3077Z"/>
        <path d="M33.077 27.6923H23.8463C23.4215 27.6923 23.077 28.0367 23.077 28.4615C23.077 28.8863 23.4215 29.2307 23.8463 29.2307H33.077C33.5018 29.2307 33.8463 28.8863 33.8463 28.4615C33.8463 28.0367 33.5018 27.6923 33.077 27.6923Z"/>
        <path d="M28.4616 26.1538C28.8864 26.1538 29.2308 25.8094 29.2308 25.3846C29.2308 24.9598 28.8864 24.6154 28.4616 24.6154C28.0368 24.6154 27.6924 24.9598 27.6924 25.3846C27.6924 25.8094 28.0368 26.1538 28.4616 26.1538Z"/>
        <path d="M28.4616 32.3076C28.8864 32.3076 29.2308 31.9633 29.2308 31.5384C29.2308 31.1136 28.8864 30.7692 28.4616 30.7692C28.0368 30.7692 27.6924 31.1136 27.6924 31.5384C27.6924 31.9633 28.0368 32.3076 28.4616 32.3076Z"/>
    </symbol>
    <symbol id="lamp-1" viewBox="0 0 48 48">
        <path d="M35.1449 18.6018C35.7212 18.0558 36.033 17.2479 35.91 16.4045C35.8248 15.8205 35.5442 15.3127 35.1449 14.9362C35.2501 14.8364 35.3479 14.7276 35.4363 14.609C35.8392 14.0687 36.0075 13.4038 35.9101 12.737C35.8249 12.1531 35.5444 11.6455 35.1453 11.269C35.2503 11.1693 35.3481 11.0606 35.4364 10.942C35.8391 10.4016 36.0073 9.73673 35.91 9.06989C35.8269 8.50064 35.5582 7.98858 35.1454 7.60018C35.7214 7.05418 36.033 6.24653 35.91 5.40344C35.7095 4.02973 34.431 3.07479 33.058 3.2697L32.2971 3.36204C32.42 3.01835 32.4698 2.64373 32.4295 2.25954C32.3584 1.58174 32.0256 0.974706 31.4925 0.55002C30.9594 0.125335 30.2933 -0.0630084 29.6167 0.018835L16.6217 1.5972C16.6161 1.59786 16.6105 1.5987 16.6049 1.59945C15.2283 1.80045 14.2717 3.08379 14.4726 4.46041C14.5276 4.837 14.6648 5.18116 14.8614 5.47975L14.2389 5.55531C14.2333 5.55597 14.2277 5.55681 14.2221 5.55747C12.8455 5.75837 11.8889 7.04171 12.0898 8.41852C12.1728 8.98786 12.4415 9.49992 12.8543 9.88823C12.2784 10.4342 11.9669 11.2419 12.0898 12.085C12.175 12.6694 12.457 13.1762 12.8567 13.5528C12.2792 14.0988 11.9666 14.9076 12.0898 15.752C12.1728 16.3215 12.4417 16.8338 12.8548 17.2222C12.2786 17.7682 11.9668 18.5761 12.0898 19.4195C12.1727 19.9882 12.441 20.4998 12.853 20.888C12.7485 20.9873 12.6513 21.0954 12.5635 21.2134C12.1607 21.7537 11.9926 22.4185 12.0899 23.0854C12.2903 24.4591 13.5683 25.4148 14.9418 25.2191L16.0796 25.0808V26.0814H16.0112C14.4759 26.0814 13.2269 27.3304 13.2269 28.8658V30.6292C13.2269 32.2179 13.7161 33.74 14.6419 35.031C15.4813 36.2016 15.7934 37.0692 15.7934 38.2321C15.7934 39.1981 16.4921 40.0026 17.4104 40.1706V45.2828C17.4104 46.7812 18.6292 48 20.1275 48H27.8726C29.3708 48 30.5897 46.7812 30.5897 45.2828V40.1706C31.508 40.0026 32.2066 39.1982 32.2066 38.2321C32.2066 37.0692 32.5187 36.2017 33.3581 35.031C34.2839 33.74 34.7731 32.2179 34.7731 30.6292V28.8658C34.7731 27.4852 33.763 26.3368 32.4432 26.1191V23.0935L33.761 22.9335C33.7666 22.9328 33.7721 22.932 33.7776 22.9313C34.4445 22.834 35.0336 22.4828 35.4364 21.9424C35.8391 21.402 36.0073 20.7371 35.91 20.0703C35.8247 19.4865 35.5443 18.9784 35.1449 18.6018ZM16.8007 2.99276L29.7862 1.41561C30.0851 1.37905 30.3802 1.46258 30.6159 1.65055C30.8517 1.83833 30.9989 2.10683 31.0303 2.40664C31.0935 3.0087 30.6562 3.55779 30.0552 3.63082L17.1473 5.19841C17.1417 5.19906 17.1361 5.19991 17.1306 5.20056C16.521 5.28963 15.9537 4.86625 15.8649 4.25716C15.7762 3.6507 16.1956 3.0851 16.8007 2.99276ZM29.1828 41.1266H23.8195C23.431 41.1266 23.1161 41.4415 23.1161 41.8301C23.1161 42.2187 23.4311 42.5335 23.8195 42.5335H29.1828V43.6494H23.8195C23.431 43.6494 23.1161 43.9643 23.1161 44.3528C23.1161 44.7413 23.4311 45.0563 23.8195 45.0563H29.1828V45.2829C29.1828 46.0054 28.595 46.5932 27.8725 46.5932H20.1274C19.405 46.5932 18.8172 46.0054 18.8172 45.2829V45.0563H20.497C20.8855 45.0563 21.2004 44.7414 21.2004 44.3528C21.2004 43.9643 20.8854 43.6494 20.497 43.6494H18.8172V42.5335H20.497C20.8855 42.5335 21.2004 42.2186 21.2004 41.8301C21.2004 41.4415 20.8854 41.1266 20.497 41.1266H18.8172V40.2043H29.1827V41.1266H29.1828ZM33.3663 28.8661V30.6295C33.3663 31.9222 32.9681 33.1609 32.2148 34.2115C31.2097 35.613 30.7998 36.778 30.7998 38.2323C30.7998 38.544 30.5463 38.7975 30.2346 38.7975H17.7655C17.4538 38.7975 17.2003 38.544 17.2003 38.2323C17.2003 36.778 16.7903 35.613 15.7853 34.2115C15.0319 33.1609 14.6338 31.9223 14.6338 30.6295V28.8661C14.6338 28.1065 15.2517 27.4886 16.0112 27.4886H31.9888C32.7484 27.4887 33.3663 28.1066 33.3663 28.8661ZM21.2114 26.0818V24.458L27.5017 23.694V26.0818H21.2114ZM28.9087 26.0818V23.5232L28.9188 23.522L31.0365 23.2648V26.0818H28.9087ZM34.3084 21.1019C34.1316 21.339 33.8739 21.4938 33.5818 21.5383C33.5815 21.5383 33.5818 21.5383 33.5815 21.5383L20.699 23.1028C20.189 23.1648 19.8044 23.5989 19.8044 24.1127V26.0817H17.4863V24.6412C17.4863 24.3502 17.3613 24.0726 17.1435 23.8797C16.9258 23.6868 16.6349 23.5964 16.3464 23.6315L14.7643 23.8236C14.7586 23.8243 14.7531 23.8251 14.7475 23.8258C14.1384 23.9151 13.5706 23.4915 13.4818 22.8824C13.4387 22.5874 13.5131 22.2933 13.6913 22.0543C13.868 21.8172 14.1257 21.6624 14.4179 21.6179L33.2353 19.3327C33.2409 19.332 33.2465 19.3312 33.2521 19.3305C33.8609 19.2414 34.4289 19.6647 34.5178 20.2738C34.561 20.5687 34.4866 20.8628 34.3084 21.1019ZM33.5819 17.8724L14.7645 20.1576C14.7588 20.1582 14.7532 20.1591 14.7477 20.1598C14.4526 20.2026 14.1586 20.1284 13.9195 19.9503C13.6804 19.7722 13.525 19.5115 13.482 19.2165C13.3936 18.6099 13.8129 18.0442 14.418 17.9519L33.2354 15.6667C33.241 15.666 33.2466 15.6652 33.2522 15.6645C33.861 15.5749 34.429 15.9987 34.5179 16.6079C34.6065 17.2143 34.187 17.78 33.5819 17.8724ZM34.3084 13.7683C34.1316 14.0053 33.874 14.1602 33.582 14.2047L14.7644 16.49C14.7587 16.4906 14.7531 16.4915 14.7476 16.4922C14.4525 16.535 14.1585 16.4608 13.9194 16.2827C13.6803 16.1046 13.5249 15.844 13.4819 15.5489C13.3936 14.9423 13.8129 14.3766 14.418 14.2842L33.2354 11.999C33.241 11.9983 33.2466 11.9975 33.2522 11.9969C33.861 11.908 34.429 12.3312 34.5179 12.9403C34.561 13.2354 34.4866 13.5294 34.3084 13.7683ZM34.3085 10.1013C34.1317 10.3384 33.874 10.4932 33.5819 10.5377L14.7645 12.823C14.7588 12.8236 14.7533 12.8245 14.7477 12.8251C14.1386 12.9144 13.5708 12.4908 13.482 11.8817C13.3936 11.2753 13.813 10.7096 14.4181 10.6172L33.2355 8.33208C33.2411 8.33143 33.2467 8.33058 33.2523 8.32983C33.5472 8.2869 33.8414 8.36115 34.0805 8.53936C34.3195 8.71749 34.475 8.97811 34.518 9.27314C34.5611 9.56808 34.4867 9.86226 34.3085 10.1013ZM33.5819 6.87128L14.7645 9.15652C14.7588 9.15717 14.7532 9.15802 14.7477 9.15877C14.4526 9.2017 14.1586 9.12736 13.9195 8.94924C13.6804 8.77111 13.525 8.51049 13.482 8.21546C13.3936 7.6088 13.8129 7.04312 14.418 6.95087L33.2356 4.66554C33.2412 4.66488 33.2467 4.66404 33.2524 4.66338C33.8612 4.57432 34.4292 4.99769 34.5181 5.60678C34.6065 6.21325 34.187 6.77884 33.5819 6.87128Z"/>
    </symbol>
    <symbol id="lamp-2" viewBox="0 0 48 48">
        <path d="M44.2365 22.362C44.2043 22.1901 44.1131 22.0349 43.9786 21.9232C43.8441 21.8114 43.6748 21.7502 43.5 21.75H36C35.8251 21.7502 35.6558 21.8114 35.5213 21.9232C35.3869 22.0349 35.2957 22.1901 35.2635 22.362L33.0135 34.362C32.9932 34.4702 32.997 34.5816 33.0247 34.6882C33.0523 34.7948 33.1031 34.894 33.1734 34.9788C33.2437 35.0636 33.3318 35.1318 33.4315 35.1787C33.5311 35.2255 33.6399 35.2499 33.75 35.25H38.2312C38.1385 36.9726 37.3889 38.5941 36.1367 39.7806C34.8845 40.9672 33.2251 41.6286 31.5 41.6286C29.7749 41.6286 28.1155 40.9672 26.8633 39.7806C25.6111 38.5941 24.8615 36.9726 24.7687 35.25H30C30.1101 35.2499 30.2189 35.2255 30.3185 35.1787C30.4182 35.1318 30.5063 35.0636 30.5766 34.9788C30.6469 34.894 30.6976 34.7948 30.7253 34.6882C30.7529 34.5816 30.7567 34.4702 30.7365 34.362L28.4865 22.362C28.4543 22.1901 28.3631 22.0349 28.2286 21.9232C28.0941 21.8114 27.9248 21.7502 27.75 21.75H24.75V11.9557C26.1405 11.7978 27.4477 11.2123 28.4912 10.2798C29.5348 9.34738 30.2632 8.11404 30.576 6.75H33V5.25H15V6.75H17.424C17.7368 8.11404 18.4652 9.34738 19.5087 10.2798C20.5523 11.2123 21.8595 11.7978 23.25 11.9557V21.75H20.25C20.0751 21.7502 19.9058 21.8114 19.7713 21.9232C19.6369 22.0349 19.5457 22.1901 19.5135 22.362L17.2635 34.362C17.2432 34.4702 17.247 34.5816 17.2747 34.6882C17.3023 34.7948 17.3531 34.894 17.4234 34.9788C17.4937 35.0636 17.5818 35.1318 17.6814 35.1787C17.7811 35.2255 17.8899 35.2499 18 35.25H23.2117C23.026 37.1001 22.1596 38.8153 20.7807 40.0628C19.4018 41.3102 17.6087 42.0009 15.7492 42.0009C13.8898 42.0009 12.0966 41.3102 10.7177 40.0628C9.33881 38.8153 8.47244 37.1001 8.28673 35.25H14.25C14.3601 35.2499 14.4689 35.2255 14.5685 35.1787C14.6682 35.1318 14.7563 35.0636 14.8266 34.9788C14.8969 34.894 14.9476 34.7948 14.9753 34.6882C15.0029 34.5816 15.0067 34.4702 14.9865 34.362L12.7365 22.362C12.7043 22.1901 12.6131 22.0349 12.4786 21.9232C12.3441 21.8114 12.1748 21.7502 12 21.75H4.49998C4.32513 21.7502 4.15582 21.8114 4.02134 21.9232C3.88686 22.0349 3.79565 22.1901 3.76348 22.362L1.51348 34.362C1.49321 34.4702 1.49704 34.5816 1.52467 34.6882C1.55231 34.7948 1.60309 34.894 1.67339 34.9788C1.74369 35.0636 1.8318 35.1318 1.93145 35.1787C2.0311 35.2255 2.13985 35.2499 2.24998 35.25H6.78823C6.95252 37.2372 7.7728 39.1134 9.12002 40.5834C10.4672 42.0535 12.2649 43.0339 14.2303 43.3705C16.1957 43.7071 18.2172 43.3807 19.9768 42.4428C21.7364 41.5048 23.1343 40.0085 23.9505 38.1892C24.6968 39.894 25.9982 41.296 27.6428 42.1669C29.2874 43.0378 31.1784 43.3264 33.0079 42.9856C34.8374 42.6448 36.4977 41.6948 37.7185 40.2902C38.9393 38.8856 39.6487 37.1091 39.7312 35.25H45.75C45.8601 35.2499 45.9689 35.2255 46.0685 35.1787C46.1682 35.1318 46.2563 35.0636 46.3266 34.9788C46.3969 34.894 46.4476 34.7948 46.4753 34.6882C46.5029 34.5816 46.5067 34.4702 46.4865 34.362L44.2365 22.362ZM18.975 6.75H29.0325C28.7081 7.83157 28.0437 8.77975 27.1378 9.45383C26.232 10.1279 25.1329 10.492 24.0037 10.492C22.8746 10.492 21.7755 10.1279 20.8696 9.45383C19.9637 8.77975 19.2993 7.83157 18.975 6.75ZM5.12248 23.25H11.3775L13.35 33.75H3.15373L5.12248 23.25ZM20.8725 23.25H27.1275L29.1 33.75H18.9037L20.8725 23.25ZM34.6537 33.75L36.6225 23.25H42.8775L44.85 33.75H34.6537Z"/>
        <path d="M39.9702 24.9696L36.9702 27.9697L38.0308 29.0303L41.0309 26.0303L39.9702 24.9696Z"/>
        <path d="M40.7199 27.9691L37.7198 30.9691L38.7805 32.0298L41.7806 29.0297L40.7199 27.9691Z"/>
        <path d="M24.2201 24.969L21.22 27.9691L22.2806 29.0297L25.2807 26.0297L24.2201 24.969Z"/>
        <path d="M24.9697 27.9692L21.9697 30.9693L23.0303 32.03L26.0304 29.0299L24.9697 27.9692Z"/>
        <path d="M8.46992 24.9692L5.46985 27.9692L6.53051 29.0299L9.53058 26.0298L8.46992 24.9692Z"/>
        <path d="M9.22029 27.9694L6.22021 30.9695L7.28087 32.0301L10.281 29.0301L9.22029 27.9694Z"/>
    </symbol>
    <symbol id="lamp-3" viewBox="0 0 48 42">
        <path d="M47.2969 37.4077H46.6073C46.5095 34.7732 44.9077 32.5184 42.6365 31.4766V30.6398C42.6365 29.4749 41.6887 28.5271 40.5238 28.5271H40.5125V8.41919C41.3016 8.36572 41.9736 7.78748 42.1337 7.00342L42.4014 5.69495H46.0833C47.0914 5.69495 47.9114 4.875 47.9114 3.86682V1.92188C47.9114 0.913696 47.0914 0.09375 46.0833 0.09375H40.7783C40.3901 0.09375 40.0752 0.408691 40.0752 0.796875C40.0752 1.18506 40.3901 1.5 40.7783 1.5H46.0833C46.3158 1.5 46.5051 1.68933 46.5051 1.92188V3.86682C46.5051 4.09937 46.3158 4.2887 46.0833 4.2887C44.4342 4.2887 4.13342 4.2887 1.84607 4.2887C1.61353 4.2887 1.42456 4.09937 1.42456 3.86682V1.92188C1.42456 1.68933 1.61353 1.5 1.84607 1.5H37.9658C38.354 1.5 38.6689 1.18506 38.6689 0.796875C38.6689 0.408691 38.354 0.09375 37.9658 0.09375H1.84607C0.838257 0.09375 0.0179443 0.913696 0.0179443 1.92188V3.86682C0.0179443 4.87463 0.838257 5.69495 1.84607 5.69495H5.52795L5.79565 7.00342C5.96045 7.81091 6.66797 8.39978 7.48755 8.42249V28.5051H7.4762C6.31128 28.5051 5.36353 29.4529 5.36353 30.6178V31.4539C4.85632 31.6849 4.37695 31.9775 3.93896 32.3287C3.63574 32.5715 3.58704 33.0139 3.82983 33.3171C4.07263 33.62 4.51501 33.6691 4.81824 33.4263C5.78394 32.6521 6.95032 32.243 8.19104 32.243C11.0819 32.243 13.4487 34.5271 13.5831 37.3857H2.79895C2.83081 36.6962 2.99048 36.0304 3.27649 35.4038C3.43762 35.0504 3.28198 34.6333 2.92859 34.4722C2.5752 34.3107 2.15808 34.4667 1.99695 34.8201C1.62671 35.6312 1.42529 36.4933 1.3927 37.3857H0.703125C0.314575 37.3857 0 37.7003 0 38.0889C0 38.4771 0.314575 38.792 0.703125 38.792H4.51685C4.8468 40.5198 6.36841 41.8301 8.19067 41.8301C10.0133 41.8301 11.5349 40.5198 11.8649 38.792H15.6786C16.0668 38.792 16.3817 38.4771 16.3817 38.0889C16.3817 37.7003 16.0668 37.3857 15.6786 37.3857H14.989C14.8912 34.7512 13.2894 32.4965 11.0182 31.4542V30.6178C11.0182 29.4529 10.0704 28.5051 8.90552 28.5051H8.8938V8.42212C9.71375 8.39941 10.4209 7.81091 10.5861 7.00342L10.8534 5.69495H21.3021L21.5695 7.00342C21.7346 7.81055 22.4418 8.39941 23.2614 8.42212V19.4982H23.25C22.0851 19.4982 21.1373 20.4459 21.1373 21.6108V22.4476C18.8665 23.4895 17.2643 25.7446 17.1665 28.3788H16.4769C16.0887 28.3788 15.7738 28.6937 15.7738 29.0819C15.7738 29.4701 16.0887 29.785 16.4769 29.785H20.2906C20.6206 31.5128 22.1422 32.8231 23.9645 32.8231C25.7871 32.8231 27.3087 31.5128 27.6387 29.785H31.4524C31.8409 29.785 32.1555 29.4701 32.1555 29.0819C32.1555 28.6937 31.8409 28.3788 31.4524 28.3788H30.7628C30.665 25.7446 29.0632 23.4895 26.792 22.4476V21.6108C26.792 20.4459 25.8442 19.4982 24.6793 19.4982H24.6676V8.42212C25.4875 8.39941 26.1951 7.81091 26.3599 7.00342L26.6276 5.69495H37.0759L37.3433 7.00342C37.5117 7.82666 38.2438 8.42432 39.0842 8.42432H39.1058V28.5271H39.0945C37.9296 28.5271 36.9818 29.4749 36.9818 30.6398V31.4766C34.7106 32.5184 33.1088 34.7732 33.011 37.4077H32.3214C31.9329 37.4077 31.6183 37.7223 31.6183 38.1108C31.6183 38.499 31.9329 38.814 32.3214 38.814H36.1403C36.4801 40.5293 37.9999 41.8301 39.809 41.8301C41.6184 41.8301 43.1382 40.5293 43.478 38.814H47.2969C47.6854 38.814 48 38.499 48 38.1108C48 37.7223 47.6854 37.4077 47.2969 37.4077ZM8.19067 40.4238C7.14807 40.4238 6.26331 39.7368 5.96411 38.792H10.4176C10.1184 39.7368 9.23364 40.4238 8.19067 40.4238ZM9.61194 30.6178V30.9873C9.15344 30.8892 8.6781 30.8368 8.19067 30.8368C7.7113 30.8368 7.23486 30.8881 6.76978 30.9877V30.6178C6.76978 30.2281 7.08655 29.9114 7.4762 29.9114H8.90552C9.29517 29.9114 9.61194 30.2281 9.61194 30.6178ZM23.9645 31.4169C22.9219 31.4169 22.0371 30.7302 21.7379 29.785H26.1914C25.8922 30.7302 25.0074 31.4169 23.9645 31.4169ZM29.3569 28.3788H18.5728C18.7068 25.5205 21.0736 23.2365 23.9648 23.2365C26.8557 23.2365 29.2225 25.5205 29.3569 28.3788ZM25.3857 21.6112V21.9803C24.9272 21.8826 24.4519 21.8302 23.9645 21.8302C23.4774 21.8302 23.0021 21.8826 22.5436 21.9803V21.6112C22.5436 21.2216 22.8604 20.9048 23.25 20.9048H24.6793C25.069 20.9048 25.3857 21.2216 25.3857 21.6112ZM9.20837 6.7218C9.17322 6.89355 9.02051 7.01807 8.84546 7.01807H7.53625C7.36121 7.01807 7.2085 6.89355 7.17334 6.7218L6.9635 5.69495H9.41821L9.20837 6.7218ZM24.9822 6.7218C24.947 6.89355 24.7943 7.01807 24.6193 7.01807H23.3104C23.135 7.01807 22.9823 6.89355 22.9471 6.7218L22.7373 5.69495H25.192L24.9822 6.7218ZM38.7209 6.7218L38.5111 5.69495H40.9658L40.756 6.7218C40.7208 6.89355 40.5681 7.01807 40.3927 7.01807H39.0839C38.9088 7.01807 38.7561 6.89355 38.7209 6.7218ZM38.3881 30.6398C38.3881 30.2505 38.7048 29.9333 39.0945 29.9333H40.5238C40.9135 29.9333 41.2302 30.2505 41.2302 30.6398V31.0093C40.7717 30.9115 40.2964 30.8588 39.8093 30.8588C39.3219 30.8588 38.8466 30.9115 38.3881 31.0093V30.6398ZM39.8093 32.265C42.7002 32.265 45.067 34.5494 45.2014 37.4077H34.4172C34.5513 34.5494 36.9181 32.265 39.8093 32.265ZM39.8093 40.4238C38.7781 40.4238 37.8973 39.7467 37.5908 38.814H42.0278C41.7209 39.7467 40.8406 40.4238 39.8093 40.4238Z"/>
    </symbol>
    <symbol id="lamp-4" viewBox="0 0 48 48">
        <path d="M45.9424 19.544H45.8988C42.931 16.4396 40.7147 13.489 39.4813 10.9988C39.0865 10.2016 38.3182 9.64272 37.4473 9.48928V9.01467C37.4473 7.81606 36.675 6.79396 35.6024 6.42042L34.9428 1.94056C34.796 0.941164 33.9229 0.1875 32.9125 0.1875H30.8753C29.8649 0.1875 28.9922 0.941164 28.845 1.94092L28.8187 2.12H22.8637C19.3092 2.12 16.0913 4.4546 14.6653 8.06764C13.1693 11.8576 9.8771 11.1801 9.64492 11.2482C9.20327 9.98732 8.00136 9.08022 6.59108 9.08022H6.33876V5.80006C6.33876 4.48499 5.26905 3.41529 3.95399 3.41529H2.29065C0.975954 3.41529 -0.09375 4.48499 -0.09375 5.80006V6.97999C-0.09375 7.36854 0.221192 7.68312 0.609376 7.68312C0.997561 7.68312 1.3125 7.36854 1.3125 6.97999V5.80006C1.3125 5.26063 1.75122 4.82154 2.29065 4.82154H3.95399C4.49342 4.82154 4.93251 5.26063 4.93251 5.80006V19.9604C4.93251 21.9222 3.86976 23.7375 2.15918 24.6977C1.78052 24.9101 1.3125 24.6373 1.3125 24.2022V9.79287C1.3125 9.40431 0.997927 9.08974 0.609376 9.08974C0.221192 9.08974 -0.09375 9.40431 -0.09375 9.79287V24.2022C-0.09375 25.7099 1.52893 26.6639 2.84766 25.9241C5.00099 24.7149 6.33839 22.4297 6.33839 19.9604V17.61H6.59108C7.93324 17.61 9.08718 16.7882 9.5757 15.6211C9.73134 15.5742 16.0891 16.3704 18.7328 9.67348C19.4953 7.74135 21.1169 6.49293 22.8637 6.49293H27.9998C26.082 7.32277 26.3585 9.42263 26.3409 9.48928C25.4697 9.64272 24.7017 10.2016 24.3066 10.9988C23.0732 13.489 20.8569 16.4396 17.8891 19.544H17.8455C16.7626 19.544 15.8815 20.4251 15.8815 21.508C15.8815 23.4028 17.4229 24.9441 19.3173 24.9441H19.3931L24.1297 42.913C24.423 44.0263 25.4319 44.8038 26.5833 44.8038H26.6818C26.9777 45.3674 27.2319 45.9109 27.4391 46.4232C27.8017 47.3208 28.7238 47.9239 29.7335 47.9239H34.0544C35.064 47.9239 35.9858 47.3208 36.3487 46.4232C36.5556 45.9109 36.8098 45.3674 37.1057 44.8038C37.1152 44.8005 39.1374 44.8877 39.6582 42.913L44.3944 24.9441H44.4702C46.365 24.9441 47.9063 23.4028 47.9063 21.508C47.9063 20.4251 47.0252 19.544 45.9424 19.544ZM30.8753 1.59375H32.9125C33.2304 1.59375 33.5051 1.83069 33.5516 2.14527L34.1584 6.26844H29.6295L30.2359 2.14563C30.2824 1.83106 30.5571 1.59375 30.8753 1.59375ZM8.41884 14.376C8.41884 15.3838 7.59889 16.2038 6.59108 16.2038H6.33839V10.4865H6.59108C7.59889 10.4865 8.41884 11.3064 8.41884 12.3142V14.376ZM17.4247 9.15712C16.2118 12.2296 13.5074 14.2149 10.5344 14.2149H9.82509V12.6544H10.5344C12.8625 12.6544 14.9971 11.0567 15.9734 8.584C17.1859 5.51149 19.8904 3.52589 22.8633 3.52589H28.6118L28.3818 5.08668H22.8633C20.5357 5.08668 18.4007 6.68446 17.4247 9.15712ZM29.0871 7.6747H34.7008C35.4398 7.6747 36.0407 8.27602 36.0407 9.01467V9.4468H27.7468V9.01467C27.7468 8.27602 28.3481 7.6747 29.0871 7.6747ZM25.5667 11.6228C25.7985 11.1552 26.2929 10.853 26.8261 10.853H36.9617C37.4949 10.853 37.9893 11.1552 38.2211 11.6228C39.3853 13.9735 41.3607 16.6908 43.9729 19.544H19.815C22.4272 16.6908 24.4025 13.9735 25.5667 11.6228ZM25.4894 42.5545L20.8473 24.9441H25.8622L29.0596 43.3975C28.2408 43.3975 27.5036 43.3975 26.5833 43.3975C26.0702 43.3975 25.6202 43.0507 25.4894 42.5545ZM35.045 45.8966C34.8948 46.2683 34.4968 46.5177 34.0544 46.5177H29.7335C29.2911 46.5177 28.893 46.2683 28.7429 45.8966C28.6004 45.5435 28.4378 45.1784 28.2569 44.8038H35.531C35.35 45.1784 35.1874 45.5435 35.045 45.8966ZM38.2984 42.5545C38.1673 43.0507 37.7176 43.3975 37.2045 43.3975C36.6424 43.3975 35.2709 43.3975 34.7282 43.3975L35.2991 40.1038C35.3654 39.7211 35.1087 39.3571 34.726 39.2908C34.3441 39.2249 33.9797 39.4809 33.9134 39.8636L33.3011 43.3972H30.4868L27.2894 24.9438H36.4985L34.3935 37.0921C34.3272 37.4748 34.5836 37.8388 34.9663 37.9051C35.3482 37.9714 35.7126 37.7154 35.7792 37.3323L37.9256 24.9438H42.9401L38.2984 42.5545ZM44.4702 23.5379H19.3173C18.1982 23.5379 17.2878 22.6271 17.2878 21.508C17.2878 21.2004 17.5379 20.9502 17.8455 20.9502H45.9424C46.25 20.9502 46.5001 21.2004 46.5001 21.508C46.5001 22.6271 45.5897 23.5379 44.4702 23.5379Z"/>
    </symbol>
    <symbol id="case" viewBox="0 0 64 64">
        <path d="M36.6195 40.3004C36.0252 40.3004 35.5246 39.8421 35.4812 39.2399C35.4355 38.6101 35.9086 38.0639 36.5383 38.0181C43.4857 37.513 50.2469 35.865 56.6435 33.1187V19.8673C56.6435 19.2376 56.1315 18.7244 55.5006 18.7244H8.50059C7.87088 18.7244 7.35774 19.2376 7.35774 19.8673V33.1187C12.6812 35.4033 18.2869 36.9336 24.032 37.6719C24.6583 37.7519 25.1006 38.3256 25.0195 38.9507C24.9395 39.5781 24.3715 40.0067 23.7406 39.9393C17.5303 39.1416 11.4789 37.449 5.75202 34.9119C5.33945 34.729 5.07202 34.3187 5.07202 33.8673V19.8673C5.07202 17.977 6.61031 16.4387 8.50059 16.4387H55.5006C57.3909 16.4387 58.9292 17.977 58.9292 19.8673V33.8673C58.9292 34.3199 58.6629 34.729 58.2492 34.9119C51.4114 37.9427 44.1623 39.7553 36.7029 40.297C36.6755 40.2993 36.6469 40.3004 36.6195 40.3004Z" fill="#999999"/>
        <path d="M52.0172 53.072H11.9829C9.46172 53.072 7.41144 51.0217 7.41144 48.5005V35.5188C7.41144 34.8868 7.92344 34.376 8.5543 34.376C9.18515 34.376 9.69715 34.8868 9.69715 35.5188V48.5005C9.69715 49.7611 10.7223 50.7863 11.9829 50.7863H52.016C53.2766 50.7863 54.3017 49.7611 54.3017 48.5005V39.4971C54.3017 38.8651 54.8126 38.3543 55.4446 38.3543C56.0766 38.3543 56.5874 38.8651 56.5874 39.4971V48.5005C56.5886 51.0228 54.5383 53.072 52.0172 53.072Z" fill="#999999"/>
        <path d="M24.2423 18C23.6115 18 23.0995 17.488 23.0995 16.8571V13.2137C23.0995 11.9531 24.1246 10.928 25.3852 10.928H38.6149C39.8755 10.928 40.9006 11.9531 40.9006 13.2137V14.0285C40.9006 14.6594 40.3898 15.1714 39.7578 15.1714C39.1258 15.1714 38.6149 14.6594 38.6149 14.0285V13.2137H25.3852V16.8571C25.3852 17.488 24.8743 18 24.2423 18Z" fill="#999999"/>
        <path d="M34.9212 43.5669H29.08C27.8195 43.5669 26.7943 42.5418 26.7943 41.2812V37.3692C26.7943 36.1086 27.8195 35.0835 29.08 35.0835H34.9212C36.1818 35.0835 37.2069 36.1086 37.2069 37.3692V41.2812C37.2069 42.5418 36.1806 43.5669 34.9212 43.5669ZM29.0789 37.3692V41.2812H34.9223L34.92 37.3692H29.0789Z" fill="#999999"/>
    </symbol>
    <symbol id="hands" viewBox="0 0 64 64">
        <path d="M19.5862 21.168C19.0571 21.168 18.5165 21.1371 17.9679 21.0765C17.3405 21.0068 16.8879 20.4422 16.9576 19.8148C17.0274 19.1874 17.6022 18.7382 18.2194 18.8045C19.3622 18.9314 20.4525 18.9028 21.4594 18.7177C23.3314 18.376 24.4091 18.0674 24.9828 17.8685C26.8102 17.2388 28.4754 16.9108 30.0742 16.8639C31.0742 16.8342 32.0034 16.9062 32.8376 17.0754C33.4571 17.1999 33.8559 17.8034 33.7314 18.4217C33.6068 19.04 33.0056 19.44 32.3851 19.3154C31.7211 19.1817 30.9668 19.1257 30.1416 19.1485C28.7771 19.1885 27.3336 19.4765 25.7291 20.0297C24.7862 20.3554 23.4879 20.6708 21.8708 20.9668C21.1371 21.1005 20.3736 21.168 19.5862 21.168Z" fill="#999999"/>
        <path d="M49.5063 39.8903C49.0972 39.8903 48.7006 39.6698 48.4949 39.2823C48.2 38.7246 48.4137 38.032 48.9703 37.7372C48.976 37.7338 49.5372 37.4355 50.2834 36.9395C50.8069 36.5852 51.5177 36.7303 51.8674 37.2572C52.2183 37.7818 52.0754 38.4915 51.5497 38.8412C50.7006 39.4069 50.0652 39.7441 50.0389 39.7589C49.8697 39.8481 49.6869 39.8903 49.5063 39.8903Z" fill="#999999"/>
        <path d="M46.8594 42.929C43.7931 42.9302 40.3954 39.4044 39.6286 38.5633C39.2034 38.0982 39.2354 37.3759 39.7006 36.9496C40.1669 36.5267 40.8891 36.5553 41.3154 37.0216C43.0434 38.9096 46.1874 41.3313 47.4537 40.5027C47.8149 40.2616 48.0274 39.9256 48.0937 39.5302C48.1623 39.1176 48.0583 38.6959 47.8091 38.369C46.7623 37.0022 45.5497 35.6227 44.208 34.2707C41.112 31.1542 38.3074 29.1782 38.2789 29.1587C37.4629 28.6285 36.5131 28.4719 35.5737 28.6982C34.6057 28.9313 33.7714 29.5553 33.2823 30.4102C32.6228 31.561 32.1886 32.6376 32.1851 32.649C31.5486 34.3484 29.2994 37.2959 25.416 36.0753C24.344 35.7404 23.544 35.0787 23.104 34.1633C22.2594 32.4044 23.0183 30.3473 23.1074 30.1176L25.4823 23.7485C26.8857 19.7153 31.0103 17.9027 31.1851 17.8273C34.5771 16.3302 36.5611 15.8605 38.7691 16.0433C39.8754 16.1336 40.9863 16.4147 42.0709 16.8799C45.0549 18.1587 47.7943 18.2113 49.1646 18.1267C49.7874 18.081 50.336 18.5679 50.3749 19.1976C50.4137 19.8273 49.9337 20.369 49.3029 20.4079C47.7406 20.505 44.5909 20.4467 41.1703 18.9793C40.3131 18.6125 39.4434 18.3907 38.5829 18.3199C37.024 18.1942 35.5257 18.409 32.0983 19.921C32.0571 19.9393 28.7086 21.4307 27.6331 24.521L25.2446 30.929C25.0994 31.3119 24.8114 32.4387 25.1691 33.1747C25.2731 33.3896 25.4834 33.697 26.1006 33.8902C28.8331 34.7393 29.9406 32.1153 30.0583 31.8125C30.0857 31.7427 30.5634 30.5576 31.3006 29.2707C32.1006 27.873 33.4628 26.8525 35.04 26.4719C36.5989 26.0959 38.1806 26.3633 39.4994 27.2216C39.712 27.3656 42.5817 29.3862 45.8309 32.6559C47.2423 34.0776 48.52 35.5313 49.6251 36.977C50.2571 37.801 50.52 38.8662 50.3497 39.8993C50.1806 40.9244 49.6183 41.8022 48.7691 42.3702C48.1669 42.7656 47.5211 42.929 46.8594 42.929Z" fill="#999999"/>
        <path d="M42.3909 46.3005C39.4697 46.3005 36.896 43.2456 36.768 43.0913C36.3646 42.6056 36.432 41.8868 36.9166 41.4845C37.4034 41.0822 38.1212 41.1462 38.5257 41.6307C38.5509 41.6605 41.1932 44.7439 43.1212 43.8536C43.984 43.4536 44.2857 42.929 44.0972 42.1508C43.9497 41.537 44.328 40.9199 44.9417 40.7725C45.5555 40.6262 46.1726 41.0033 46.32 41.617C46.7635 43.4616 45.9257 45.073 44.08 45.9268C43.5143 46.1896 42.9463 46.3005 42.3909 46.3005Z" fill="#999999"/>
        <path d="M38.4446 48.7041C36.2915 48.7041 34.0663 47.0321 33.7783 46.8081C33.28 46.4207 33.1897 45.7041 33.576 45.207C33.9635 44.7064 34.68 44.6161 35.1783 45.0013C35.9532 45.599 37.8732 46.7155 38.8663 46.3544C39.2412 46.2184 39.5097 45.7864 39.6675 45.071C39.8023 44.4538 40.4137 44.0675 41.0286 44.2001C41.6446 44.335 42.0343 44.9441 41.8995 45.5613C41.4812 47.4698 40.4412 48.215 39.6423 48.503C39.2549 48.6435 38.8503 48.7041 38.4446 48.7041Z" fill="#999999"/>
        <path d="M33.7142 50.3015C32.1656 50.3015 30.7314 49.4924 30.1119 49.0878L31.3611 47.1724C32.1645 47.697 33.3245 48.1781 34.1508 47.9633C34.5759 47.8524 34.9154 47.5484 35.1896 47.0295L37.2102 48.097C36.6354 49.185 35.7759 49.905 34.7234 50.177C34.3862 50.2638 34.0479 50.3015 33.7142 50.3015Z" fill="#999999"/>
        <path d="M13.3429 38.672C11.4823 37.6503 9.53143 35.0491 9.31543 34.7554L11.1543 33.3977C11.6606 34.0834 13.2389 36.0057 14.4423 36.6663L13.3429 38.672Z" fill="#999999"/>
        <path d="M28.4114 49.8319C27.7577 49.8319 27.1246 49.6593 26.5588 49.3188C24.7268 48.2148 24.232 45.6639 25.456 43.6308C26.0331 42.6719 26.9086 41.9633 27.9211 41.6342C28.992 41.2833 30.0857 41.3976 31 41.9473C31.9143 42.4971 32.5234 43.4113 32.7166 44.5222C32.8983 45.5702 32.68 46.6765 32.1028 47.6342C31.5257 48.5931 30.6503 49.3028 29.6377 49.6319C29.2286 49.7656 28.816 49.8319 28.4114 49.8319ZM29.1406 43.7222C28.9737 43.7222 28.8023 43.7496 28.6286 43.8068C28.1394 43.9668 27.7074 44.3222 27.4137 44.8091C26.84 45.7622 26.9851 46.9062 27.7383 47.3599C28.0766 47.5645 28.4994 47.5988 28.9303 47.4582C29.4194 47.2982 29.8503 46.9428 30.144 46.4548C30.144 46.4548 30.144 46.4548 30.144 46.4536C30.4377 45.9668 30.5508 45.4193 30.4628 44.9108C30.3851 44.4651 30.1566 44.1073 29.8194 43.9039C29.6194 43.7839 29.3863 43.7222 29.1406 43.7222Z" fill="#999999"/>
        <path d="M23.1028 47.8194C22.2628 47.8194 21.4457 47.5394 20.8 46.9634C19.2994 45.6228 19.2834 43.1817 20.7657 41.5211C22.2468 39.8617 24.6743 39.5999 26.176 40.9394C26.9268 41.6091 27.3314 42.5622 27.3166 43.6228C27.3017 44.6205 26.9097 45.6 26.2114 46.3817C25.3657 47.328 24.2148 47.8194 23.1028 47.8194ZM23.8743 42.368C23.3943 42.368 22.8617 42.6045 22.4708 43.0434C21.8388 43.7508 21.7714 44.7657 22.3223 45.2582C22.8743 45.752 23.8731 45.568 24.5051 44.8594C24.8377 44.488 25.024 44.0365 25.0297 43.5885C25.0331 43.3645 24.9886 42.9451 24.6537 42.6457C24.4446 42.4571 24.1691 42.368 23.8743 42.368Z" fill="#999999"/>
        <path d="M18.8297 45.4112C18.0857 45.4112 17.3611 45.1621 16.7874 44.6512C16.1303 44.0638 15.7623 43.1986 15.776 42.2752C15.7886 41.3986 16.1326 40.5392 16.744 39.8558C17.3543 39.1712 18.1691 38.7323 19.0389 38.6203C19.952 38.5038 20.8583 38.7701 21.5154 39.3575C22.1714 39.9438 22.5406 40.8101 22.5269 41.7335C22.5143 42.6101 22.1703 43.4695 21.56 44.1529C20.8172 44.9815 19.8069 45.4112 18.8297 45.4112ZM19.4663 40.8786C19.4149 40.8786 19.368 40.8832 19.3303 40.8878C19.0114 40.9289 18.6903 41.1072 18.4491 41.3781C18.2069 41.6489 18.0663 41.9884 18.0606 42.3095C18.0583 42.4626 18.088 42.7495 18.3097 42.9472C18.6914 43.2889 19.3977 43.1426 19.8526 42.6318C20.0937 42.3621 20.2343 42.0226 20.24 41.7004C20.2423 41.5472 20.2137 41.2615 19.992 41.0638C19.8252 40.9141 19.6217 40.8786 19.4663 40.8786Z" fill="#999999"/>
        <path d="M15.4331 42.1268C15.3943 42.1268 15.3543 42.1268 15.3143 42.1245C14.4514 42.0936 13.6606 41.7073 13.144 41.0651C12.1029 39.7702 12.4103 37.7896 13.8286 36.6479C15.248 35.5096 17.2491 35.6342 18.2891 36.9256C18.8057 37.5679 19.0137 38.4239 18.8594 39.2731C18.7143 40.0753 18.2686 40.8102 17.6046 41.3439C16.9749 41.8513 16.208 42.1268 15.4331 42.1268ZM16.0069 38.1485C15.7669 38.1485 15.4937 38.2433 15.2617 38.4296C14.8331 38.7748 14.6789 39.3256 14.9269 39.6331C15.0571 39.7965 15.256 39.8365 15.4 39.8422C15.6617 39.8445 15.9429 39.7496 16.1737 39.5633H16.1749C16.4069 39.3771 16.5657 39.1233 16.6126 38.8673C16.6377 38.7256 16.6411 38.5233 16.5109 38.3611C16.3954 38.2171 16.2126 38.1485 16.0069 38.1485Z" fill="#999999"/>
        <path d="M8.59083 39.6593C8.48569 39.6593 8.3794 39.6445 8.27654 39.6148L5.20455 38.7336C4.59769 38.5611 4.24683 37.9279 4.42055 37.3211C4.59426 36.7142 5.2274 36.3622 5.83426 36.5371L7.80683 37.1016L13.5394 16.9919L9.8514 15.9382C9.24454 15.7656 8.89369 15.1325 9.06626 14.5256C9.23997 13.9188 9.87311 13.5679 10.4788 13.7405L15.2651 15.1073C15.872 15.2799 16.2228 15.9131 16.0503 16.5188L9.69026 38.8308C9.60683 39.1222 9.4114 39.3691 9.14512 39.5165C8.97369 39.6102 8.78283 39.6593 8.59083 39.6593Z" fill="#999999"/>
        <path d="M55.3873 39.6593C55.1953 39.6593 55.0033 39.6102 54.833 39.5153C54.5679 39.3679 54.3724 39.1211 54.2879 38.8296L47.9279 16.5211C47.7553 15.9142 48.1061 15.2822 48.7141 15.1085L53.5004 13.7416C54.1027 13.5702 54.7393 13.9188 54.913 14.5268C55.0856 15.1336 54.7347 15.7656 54.1267 15.9393L50.4376 16.9931L56.1724 37.1028L58.145 36.5382C58.7484 36.3668 59.385 36.7131 59.5576 37.3222C59.7313 37.9291 59.3816 38.5622 58.7736 38.7348L55.7016 39.6159C55.5987 39.6445 55.4936 39.6593 55.3873 39.6593Z" fill="#999999"/>
    </symbol>
    <symbol id="box" viewBox="0 0 56 56">
        <g clip-path="url(#clip0)">
            <path d="M39.6667 51.3333C33.2337 51.3333 28 46.0997 28 39.6667C28 33.2337 33.2337 28 39.6667 28C46.0997 28 51.3333 33.2337 51.3333 39.6667C51.3333 46.0997 46.0997 51.3333 39.6667 51.3333ZM39.6667 30.3333C34.5193 30.3333 30.3333 34.5193 30.3333 39.6667C30.3333 44.814 34.5193 49 39.6667 49C44.814 49 49 44.814 49 39.6667C49 34.5193 44.814 30.3333 39.6667 30.3333Z" fill="#999999"/>
            <path d="M54.8333 56.0001C54.5347 56.0001 54.236 55.8858 54.0073 55.6594L46.2653 47.9174C45.8103 47.4624 45.8103 46.7228 46.2653 46.2678C46.7203 45.8128 47.46 45.8128 47.915 46.2678L55.657 54.0098C56.112 54.4648 56.112 55.2044 55.657 55.6594C55.4307 55.8858 55.132 56.0001 54.8333 56.0001Z" fill="#999999"/>
            <path d="M45.4999 25.6669C44.8559 25.6669 44.3332 25.1442 44.3332 24.5002V14.1379L23.8676 24.3765C23.2982 24.6612 22.5912 24.4302 22.3019 23.8539C22.0172 23.2799 22.2482 22.5775 22.8246 22.2905L44.9772 11.2072C45.3365 11.0252 45.7682 11.0462 46.1112 11.2585C46.4542 11.4709 46.6665 11.8465 46.6665 12.2502V24.5002C46.6665 25.1442 46.1439 25.6669 45.4999 25.6669Z" fill="#999999"/>
            <path d="M23.3193 46.6666C23.1327 46.6666 22.946 46.62 22.7757 46.5313L0.623 34.8646C0.240333 34.6616 0 34.2673 0 33.8333V12.25C0 11.8463 0.21 11.4706 0.553 11.2583C0.893667 11.046 1.32767 11.0273 1.687 11.207L23.8397 22.2903C24.234 22.4886 24.4837 22.8923 24.4837 23.3333V45.5C24.4837 45.9083 24.269 46.2886 23.9213 46.4986C23.737 46.6106 23.5293 46.6666 23.3193 46.6666ZM2.33333 33.1286L22.1527 43.568V24.0543L2.33333 14.1376V33.1286Z" fill="#999999"/>
            <path d="M45.5 13.4165C45.325 13.4165 45.1477 13.3768 44.9774 13.2928L23.3194 2.47081L1.68937 13.2928C1.1177 13.5798 0.413033 13.3488 0.1237 12.7725C-0.1633 12.1961 0.0677 11.4938 0.644033 11.2068L22.7967 0.123477C23.1257 -0.0398568 23.513 -0.0398568 23.8397 0.123477L46.0204 11.2068C46.5967 11.4961 46.83 12.1961 46.543 12.7725C46.3377 13.1808 45.927 13.4165 45.5 13.4165Z" fill="#999999"/>
            <path d="M11.767 27.3911C11.123 27.3911 10.6003 26.8684 10.6003 26.2244V17.5491C10.6003 17.1081 10.85 16.7044 11.2443 16.5061L33.397 5.42274C33.9687 5.13807 34.6733 5.36907 34.9627 5.9454C35.2497 6.52174 35.0163 7.22174 34.44 7.51107L12.9337 18.2724V26.2267C12.9337 26.8707 12.411 27.3911 11.767 27.3911Z" fill="#999999"/>
        </g>
        <defs>
            <clipPath id="clip0">
                <rect fill="white"/>
            </clipPath>
        </defs>
    </symbol>
    <symbol id="you-tube" viewBox="0 0 24 24">
        <path d="M21.7794 12.1502C21.5314 11.0727 20.65 10.2779 19.5892 10.1596C17.0777 9.87906 14.5344 9.87773 12.0036 9.87906C9.4717 9.87773 6.92897 9.87906 4.41666 10.1596C3.35637 10.2782 2.47553 11.073 2.2278 12.1502C1.87472 13.6846 1.87048 15.3594 1.87048 16.9393C1.87048 18.5191 1.87048 20.1937 2.22356 21.7281C2.4713 22.8053 3.35214 23.6001 4.41296 23.7187C6.92473 23.9995 9.46747 24.0006 11.9991 23.9995C14.531 24.0008 17.0732 23.9995 19.5858 23.7187C20.646 23.6001 21.5274 22.8053 21.7752 21.7281C22.128 20.1937 22.1298 18.5191 22.1298 16.9393C22.1296 15.3592 22.1322 13.6846 21.7794 12.1502ZM7.64915 13.3394H6.18285V21.1309H4.82082V13.3394H3.38125V12.0632H7.64915V13.3394ZM11.3485 21.1312H10.1233V20.3941C9.6366 20.952 9.17447 21.2241 8.72426 21.2241C8.32963 21.2241 8.05807 21.0643 7.93553 20.722C7.86883 20.5177 7.82754 20.1943 7.82754 19.7173V14.3746H9.05167V19.3492C9.05167 19.6361 9.05167 19.7851 9.06278 19.8253C9.09216 20.0153 9.18506 20.1117 9.34916 20.1117C9.59478 20.1117 9.85152 19.9224 10.1231 19.5384V14.3746H11.3483L11.3485 21.1312ZM15.9997 19.1033C15.9997 19.7282 15.9576 20.1784 15.8758 20.4648C15.7122 20.9674 15.3848 21.2241 14.8978 21.2241C14.4622 21.2241 14.0419 20.9822 13.6324 20.4767V21.1315H12.4083V12.0632H13.6324V15.0246C14.0278 14.5379 14.4476 14.2917 14.8978 14.2917C15.3848 14.2917 15.7125 14.5482 15.8758 15.054C15.9581 15.3258 15.9997 15.7726 15.9997 16.4123V19.1033ZM20.6201 17.976H18.1716V19.1737C18.1716 19.7991 18.3762 20.1114 18.797 20.1114C19.0985 20.1114 19.274 19.9476 19.3438 19.6204C19.3552 19.554 19.3714 19.2819 19.3714 18.791H20.6204V18.9696C20.6204 19.3642 20.6053 19.6361 20.5942 19.7583C20.5531 20.0294 20.4568 20.2753 20.3083 20.4918C19.9693 20.9825 19.4669 21.2244 18.8275 21.2244C18.1869 21.2244 17.6994 20.9938 17.3455 20.5325C17.0859 20.1943 16.9525 19.6617 16.9525 18.9437V16.5772C16.9525 15.8549 17.0708 15.3266 17.331 14.9852C17.6846 14.5228 18.1719 14.2925 18.7973 14.2925C19.4116 14.2925 19.8986 14.5228 20.2416 14.9852C20.4981 15.3266 20.6206 15.8549 20.6206 16.5772V17.976H20.6201Z"/>
        <path d="M18.7862 15.3945C18.377 15.3945 18.1719 15.7071 18.1719 16.3317V16.9569H19.396V16.3317C19.3957 15.7071 19.1911 15.3945 18.7862 15.3945Z"/>
        <path d="M14.2427 15.3945C14.041 15.3945 13.8367 15.4898 13.6321 15.6923V19.8104C13.8364 20.0152 14.041 20.1121 14.2427 20.1121C14.5958 20.1121 14.7752 19.8104 14.7752 19.2003V16.3164C14.7752 15.7071 14.5958 15.3945 14.2427 15.3945Z"/>
        <path d="M14.9267 9.25654C15.3779 9.25654 15.8475 8.98233 16.34 8.41804V9.16284H17.5774V2.33447H16.34V7.55335C16.0658 7.94083 15.8059 8.13246 15.5585 8.13246C15.3928 8.13246 15.2954 8.03453 15.2684 7.84264C15.2533 7.80214 15.2533 7.65154 15.2533 7.36172V2.33447H14.0199V7.73386C14.0199 8.2161 14.0612 8.54244 14.1295 8.74915C14.2539 9.09509 14.5283 9.25654 14.9267 9.25654Z"/>
        <path d="M6.3128 5.45179V9.16281H7.68488V5.45179L9.33539 0H7.94796L7.01181 3.59827L6.0378 0H4.59399C4.88328 0.849344 5.18422 1.70292 5.47351 2.55306C5.91367 3.83092 6.1884 4.79434 6.3128 5.45179Z"/>
        <path d="M11.1744 9.2566C11.7943 9.2566 12.276 9.02342 12.6177 8.55759C12.8773 8.21589 13.0017 7.67754 13.0017 6.9518V4.56072C13.0017 3.83074 12.8776 3.29716 12.6177 2.95229C12.276 2.48513 11.7945 2.25195 11.1744 2.25195C10.5577 2.25195 10.0763 2.48513 9.73378 2.95229C9.47096 3.29716 9.34656 3.83074 9.34656 4.56072V6.9518C9.34656 7.67754 9.47096 8.21589 9.73378 8.55759C10.076 9.02342 10.5577 9.2566 11.1744 9.2566ZM10.5839 4.31272C10.5839 3.68094 10.7755 3.36597 11.1744 3.36597C11.5733 3.36597 11.7644 3.68067 11.7644 4.31272V7.18498C11.7644 7.81676 11.5733 8.13278 11.1744 8.13278C10.7755 8.13278 10.5839 7.81676 10.5839 7.18498V4.31272Z"/>
    </symbol>
    <symbol id="vk" viewBox="0 0 24 14">
        <path d="M23.7861 12.214C23.7216 12.106 23.3225 11.239 21.4024 9.45683C19.3923 7.59069 19.6623 7.89371 22.0835 4.66697C23.5581 2.70183 24.1476 1.50174 23.9631 0.9887C23.7876 0.499664 22.703 0.628674 22.703 0.628674L19.0967 0.649675C19.0967 0.649675 18.8297 0.613673 18.6302 0.732181C18.4367 0.84919 18.3122 1.11921 18.3122 1.11921C18.3122 1.11921 17.7406 2.64032 16.9786 3.93342C15.372 6.66212 14.7284 6.80613 14.4659 6.63662C13.8554 6.24209 14.0084 5.0495 14.0084 4.20344C14.0084 1.55874 14.4089 0.456161 13.2268 0.17114C12.8338 0.0766327 12.5458 0.0136281 11.5422 0.0031273C10.2551 -0.0103737 9.16451 0.00762763 8.54796 0.30915C8.13693 0.510165 7.82041 0.958698 8.01392 0.9842C8.25244 1.0157 8.79248 1.12971 9.079 1.51974C9.44953 2.02228 9.43603 3.15336 9.43603 3.15336C9.43603 3.15336 9.64904 6.26609 8.93949 6.65312C8.45196 6.91864 7.78441 6.3771 6.3518 3.90042C5.61825 2.63282 5.06321 1.23022 5.06321 1.23022C5.06321 1.23022 4.9567 0.969199 4.76618 0.829689C4.53517 0.660176 4.21114 0.606172 4.21114 0.606172L0.781892 0.627174C0.781892 0.627174 0.267355 0.642175 0.0783406 0.865692C-0.0896717 1.06521 0.0648396 1.47624 0.0648396 1.47624C0.0648396 1.47624 2.75004 7.7572 5.78926 10.9239C8.57796 13.8266 11.7432 13.6361 11.7432 13.6361H13.1773C13.1773 13.6361 13.6108 13.5881 13.8314 13.3496C14.0354 13.1306 14.0279 12.7196 14.0279 12.7196C14.0279 12.7196 13.9994 10.7949 14.8934 10.5114C15.774 10.2324 16.9051 12.3715 18.1037 13.1951C19.0097 13.8176 19.6983 13.6811 19.6983 13.6811L22.904 13.6361C22.904 13.6361 24.5811 13.5326 23.7861 12.214Z"/>
    </symbol>
    <symbol id="facebook" viewBox="0 0 12 24">
        <path d="M7.5 8.25V5.25C7.5 4.422 8.172 3.75 9 3.75H10.5V0H7.5C5.0145 0 3 2.0145 3 4.5V8.25H0V12H3V24H7.5V12H10.5L12 8.25H7.5Z"/>
    </symbol>
    <symbol id="instagram" viewBox="0 0 24 24">
        <g clip-path="url(#clip0)">
            <path d="M23.9764 7.05607C23.9202 5.78085 23.714 4.90416 23.4186 4.14449C23.1139 3.33812 22.645 2.61617 22.0308 2.01602C21.4306 1.40652 20.7039 0.932921 19.9069 0.632936C19.1428 0.337529 18.2707 0.131312 16.9955 0.0750879C15.7107 0.0141019 15.3029 0 12.0444 0C8.786 0 8.37814 0.0141019 7.09817 0.0703262C5.82296 0.126551 4.94626 0.332951 4.18678 0.628174C3.38023 0.932922 2.65828 1.40176 2.05813 2.01602C1.44864 2.61617 0.975218 3.34288 0.67505 4.13991C0.379643 4.90416 0.173426 5.77609 0.117202 7.0513C0.0562161 8.33604 0.0421143 8.7439 0.0421143 12.0023C0.0421143 15.2608 0.0562161 15.6686 0.11244 16.9486C0.168665 18.2238 0.375065 19.1005 0.670471 19.8602C0.975218 20.6666 1.44864 21.3885 2.05813 21.9887C2.65828 22.5982 3.38499 23.0718 4.18202 23.3718C4.94626 23.6672 5.8182 23.8734 7.09359 23.9296C8.37338 23.986 8.78142 23.9999 12.0399 23.9999C15.2983 23.9999 15.7062 23.986 16.9861 23.9296C18.2613 23.8734 19.138 23.6672 19.8975 23.3718C21.5105 22.7482 22.7857 21.4729 23.4093 19.8602C23.7045 19.096 23.9109 18.2238 23.9671 16.9486C24.0233 15.6686 24.0374 15.2608 24.0374 12.0023C24.0374 8.7439 24.0327 8.33604 23.9764 7.05607ZM21.8152 16.8549C21.7636 18.027 21.5667 18.6599 21.4026 19.0819C20.9993 20.1274 20.1695 20.9572 19.1239 21.3605C18.702 21.5246 18.0645 21.7215 16.8969 21.7729C15.6311 21.8293 15.2514 21.8433 12.0492 21.8433C8.84698 21.8433 8.46257 21.8293 7.20128 21.7729C6.02918 21.7215 5.39624 21.5246 4.97428 21.3605C4.45398 21.1682 3.98038 20.8634 3.59597 20.4649C3.19745 20.0758 2.8927 19.6069 2.70041 19.0866C2.53631 18.6647 2.33944 18.027 2.28797 16.8596C2.23156 15.5937 2.21765 15.2139 2.21765 12.0117C2.21765 8.80946 2.23156 8.42505 2.28797 7.16394C2.33944 5.99183 2.53631 5.3589 2.70041 4.93694C2.8927 4.41645 3.19745 3.94303 3.60073 3.55843C3.98972 3.15992 4.45856 2.85517 4.97905 2.66306C5.401 2.49896 6.0387 2.30209 7.20604 2.25044C8.47191 2.19422 8.85175 2.18011 12.0538 2.18011C15.2608 2.18011 15.6404 2.19422 16.9017 2.25044C18.0738 2.30209 18.7067 2.49896 19.1287 2.66306C19.649 2.85517 20.1226 3.15992 20.507 3.55843C20.9055 3.94761 21.2103 4.41645 21.4026 4.93694C21.5667 5.3589 21.7636 5.99641 21.8152 7.16394C21.8714 8.42981 21.8855 8.80946 21.8855 12.0117C21.8855 15.2139 21.8714 15.589 21.8152 16.8549Z"/>
            <path d="M12.0445 5.83691C8.64086 5.83691 5.87927 8.59832 5.87927 12.0022C5.87927 15.406 8.64086 18.1674 12.0445 18.1674C15.4484 18.1674 18.2098 15.406 18.2098 12.0022C18.2098 8.59832 15.4484 5.83691 12.0445 5.83691ZM12.0445 16.0014C9.8364 16.0014 8.04528 14.2105 8.04528 12.0022C8.04528 9.79386 9.8364 8.00293 12.0445 8.00293C14.2529 8.00293 16.0438 9.79386 16.0438 12.0022C16.0438 14.2105 14.2529 16.0014 12.0445 16.0014Z"/>
            <path d="M19.893 5.59312C19.893 6.38795 19.2485 7.03243 18.4535 7.03243C17.6586 7.03243 17.0142 6.38795 17.0142 5.59312C17.0142 4.7981 17.6586 4.15381 18.4535 4.15381C19.2485 4.15381 19.893 4.7981 19.893 5.59312Z"/>
        </g>
        <defs>
            <clipPath id="clip0">
                <rect/>
            </clipPath>
        </defs>
    </symbol>
    <symbol id="basmanov" viewBox="0 0 180 12">
        <g clip-path="url(#clip0)">
            <path d="M9.53911 8.65889C9.53911 10.6349 8.1044 11.7653 5.25304 11.7653H0.00146484V0.13916H4.9282C7.47277 0.13916 8.93455 1.23285 8.93455 3.12612C8.93455 4.45877 8.23073 5.33188 7.19305 5.76384C8.65483 6.10389 9.53911 7.0781 9.53911 8.65889ZM1.21059 1.15013V5.36864H4.84699C6.6697 5.36864 7.73445 4.65177 7.73445 3.26398C7.73445 1.87619 6.67872 1.15932 4.84699 1.15932H1.21059V1.15013ZM8.32999 8.5578C8.32999 7.05053 7.23817 6.37961 5.23499 6.37961H1.21059V10.7452H5.23499C7.23817 10.7544 8.32999 10.0926 8.32999 8.5578Z" fill="white"/>
            <path d="M26.151 10.35L26.6202 9.40336C27.4323 10.2213 28.8851 10.8187 30.3829 10.8187C32.5215 10.8187 33.4509 9.90885 33.4509 8.76001C33.4509 5.57086 26.4217 7.52847 26.4217 3.22724C26.4217 1.51778 27.7301 0.0380859 30.6266 0.0380859C31.9169 0.0380859 33.2524 0.424093 34.1637 1.06744L33.7577 2.05084C32.7831 1.40749 31.6372 1.08582 30.6266 1.08582C28.5422 1.08582 27.6128 2.03246 27.6128 3.19048C27.6128 6.37964 34.6419 4.4496 34.6419 8.68649C34.6419 10.396 33.3065 11.8573 30.3829 11.8573C28.6775 11.8665 26.9992 11.2507 26.151 10.35Z" fill="white"/>
            <path d="M50.7575 0.13916V11.7653H49.6025V2.4644L45.118 10.2856H44.5495L40.0649 2.51035V11.7561H38.9099V0.13916H39.9025L44.8563 8.75999L49.765 0.13916H50.7575Z" fill="white"/>
            <path d="M78.9644 0.13916V11.7653H77.9718L70.6359 2.33573V11.7653H69.4268V0.13916H70.4193L77.7733 9.56877V0.13916H78.9644Z" fill="white"/>
            <path d="M83.3047 5.95695C83.3047 2.5656 85.8493 0.0473633 89.3052 0.0473633C92.725 0.0473633 95.2876 2.55641 95.2876 5.95695C95.2876 9.35749 92.725 11.8665 89.3052 11.8665C85.8493 11.8665 83.3047 9.33911 83.3047 5.95695ZM94.0876 5.95695C94.0876 3.18137 92.0483 1.14105 89.3142 1.14105C86.5621 1.14105 84.5048 3.18137 84.5048 5.95695C84.5048 8.73253 86.5621 10.7729 89.3142 10.7729C92.0483 10.7729 94.0876 8.72334 94.0876 5.95695Z" fill="white"/>
            <path d="M108.777 0.13916L103.724 11.7653H102.533L97.4802 0.13916H98.7886L103.156 10.2305L107.559 0.13916H108.777Z" fill="white"/>
            <path d="M18.5082 0.13916H17.3172L12.1017 11.7653H13.3559L14.7275 8.65889L15.1606 7.6663L17.9037 1.41666L20.6377 7.6663L21.0799 8.65889L22.4514 11.7653H23.7237L18.5082 0.13916Z" fill="white"/>
            <path d="M60.6923 0.13916H59.5012L54.2858 11.7653H55.54L56.9115 8.65889L57.3447 7.6663L60.0878 1.41666L62.8308 7.6663L63.264 8.65889L64.6355 11.7653H65.9078L60.6923 0.13916Z" fill="white"/>
            <path d="M119.172 0.102539H121.058C122.538 0.102539 123.54 1.07675 123.54 2.46454C123.54 3.85233 122.538 4.82653 121.058 4.82653H119.172V0.102539ZM121.04 4.39457C122.276 4.39457 123.07 3.59499 123.07 2.46454C123.07 1.33409 122.276 0.5345 121.04 0.5345H119.669V4.39457H121.04Z" fill="#C0BDAF"/>
            <path d="M125.299 0.102539H125.786V4.82653H125.299V0.102539Z" fill="#C0BDAF"/>
            <path d="M131.228 2.46468H131.697V4.26604C131.264 4.66124 130.641 4.86344 129.991 4.86344C128.584 4.86344 127.546 3.84328 127.546 2.46468C127.546 1.08608 128.575 0.065918 130 0.065918C130.704 0.065918 131.309 0.295684 131.724 0.746026L131.417 1.0677C131.029 0.672501 130.56 0.51626 130.018 0.51626C128.872 0.51626 128.033 1.34342 128.033 2.47387C128.033 3.59513 128.872 4.43148 130.018 4.43148C130.461 4.43148 130.876 4.33038 131.228 4.06385V2.46468Z" fill="#C0BDAF"/>
            <path d="M133.736 0.102539H134.223V4.82653H133.736V0.102539Z" fill="#C0BDAF"/>
            <path d="M137.3 0.5345H135.667V0.102539H139.412V0.5345H137.778V4.82653H137.291V0.5345H137.3Z" fill="#C0BDAF"/>
            <path d="M143.535 3.56742H140.955L140.395 4.82653H139.881L142.001 0.102539H142.489L144.609 4.82653H144.095L143.535 3.56742ZM143.355 3.16303L142.245 0.626407L141.135 3.16303H143.355Z" fill="#C0BDAF"/>
            <path d="M146.035 0.102539H146.522V4.39457H149.121V4.82653H146.035V0.102539Z" fill="#C0BDAF"/>
            <path d="M156.249 2.46468H156.718V4.26604C156.285 4.66124 155.663 4.86344 155.013 4.86344C153.605 4.86344 152.568 3.84328 152.568 2.46468C152.568 1.08608 153.596 0.065918 155.022 0.065918C155.726 0.065918 156.33 0.295684 156.745 0.746026L156.439 1.0677C156.051 0.672501 155.581 0.51626 155.04 0.51626C153.894 0.51626 153.055 1.34342 153.055 2.47387C153.055 3.59513 153.894 4.43148 155.04 4.43148C155.482 4.43148 155.897 4.33038 156.249 4.06385V2.46468Z" fill="#C0BDAF"/>
            <path d="M161.934 4.82653L160.878 3.31008C160.761 3.31927 160.644 3.32846 160.508 3.32846H159.263V4.82653H158.776V0.102539H160.508C161.69 0.102539 162.403 0.709122 162.403 1.72009C162.403 2.46454 162.015 2.97921 161.347 3.19979L162.475 4.81734H161.934V4.82653ZM161.907 1.72009C161.907 0.966461 161.42 0.5345 160.49 0.5345H159.254V2.90569H160.49C161.411 2.90569 161.907 2.46454 161.907 1.72009Z" fill="#C0BDAF"/>
            <path d="M163.802 2.46468C163.802 1.08608 164.83 0.065918 166.238 0.065918C167.628 0.065918 168.665 1.08608 168.665 2.46468C168.665 3.84328 167.628 4.86344 166.238 4.86344C164.83 4.86344 163.802 3.84328 163.802 2.46468ZM168.178 2.46468C168.178 1.33423 167.348 0.50707 166.238 0.50707C165.119 0.50707 164.28 1.33423 164.28 2.46468C164.28 3.59513 165.11 4.42229 166.238 4.42229C167.348 4.42229 168.178 3.59513 168.178 2.46468Z" fill="#C0BDAF"/>
            <path d="M170.389 2.81378V0.102539H170.876V2.78621C170.876 3.90747 171.39 4.42215 172.293 4.42215C173.204 4.42215 173.718 3.90747 173.718 2.78621V0.102539H174.197V2.80459C174.197 4.16481 173.484 4.8633 172.293 4.8633C171.102 4.8633 170.389 4.16481 170.389 2.81378Z" fill="#C0BDAF"/>
            <path d="M179.953 1.72009C179.953 2.72187 179.241 3.32846 178.059 3.32846H176.813V4.81734H176.326V0.102539H178.059C179.241 0.102539 179.953 0.709122 179.953 1.72009ZM179.466 1.72009C179.466 0.96646 178.979 0.5345 178.049 0.5345H176.813V2.8965H178.049C178.979 2.8965 179.466 2.46454 179.466 1.72009Z" fill="#C0BDAF"/>
        </g>
        <defs>
            <clipPath id="clip0">
                <rect fill="white"/>
            </clipPath>
        </defs>
    </symbol>
    <symbol id="hands-bg" viewBox="0 0 111 111">
        <path d="M3.68225 92.5564C21.6917 120.197 99.7329 116.591 110.539 82.9424C113.064 67.1444 104.966 45.3652 92.5291 27.9138C66.1151 -11.9958 37.4362 -7.1736 14.9881 30.0655C1.6379 52.2121 -4.47628 80.035 3.68225 92.5564Z" fill="#DE1F24"/>
        <g clip-path="url(#clip0)">
            <path d="M32.9093 60.1357L36.7347 61.6449C37.2402 61.8442 37.7914 61.739 38.1856 61.4086L41.2151 63.3191L41.7346 63.6844C41.0756 64.7274 41.2444 66.1528 42.2465 67.0024C42.7971 67.4693 43.4967 67.6685 44.1816 67.5939C44.2218 68.3138 44.5492 68.955 45.082 69.4066C45.6055 69.8506 46.2891 70.0779 47.0169 69.9985C47.0574 70.7181 47.3846 71.3591 47.9174 71.8108C48.4459 72.2589 49.1307 72.4815 49.8536 72.4026C49.8914 73.0805 50.1954 73.7423 50.7529 74.215C51.8297 75.1282 53.4496 74.9957 54.3626 73.919L54.9705 73.2055L55.9949 73.9615C57.766 75.2688 60.2693 74.1978 60.5002 72.0248C62.3263 72.6884 64.2652 71.4086 64.2934 69.4432C66.0146 69.7668 67.542 68.5167 67.6379 66.8584C69.8705 67.4548 71.89 65.1986 70.9041 62.9925L73.6416 61.2342C74.0336 61.6985 74.685 61.874 75.2657 61.6448L79.0912 60.1357C79.8275 59.8453 80.1904 59.0099 79.8999 58.2734L78.1514 53.8415C78.0089 53.4802 77.6005 53.303 77.2394 53.4455C76.878 53.588 76.7008 53.9963 76.8433 54.3576L78.5916 58.7894C78.5976 58.8045 78.5902 58.8216 78.5751 58.8276L74.7496 60.3367C74.7345 60.3426 74.7175 60.3353 74.7115 60.3202C74.5775 59.9807 70.2837 49.0963 69.904 48.1339C69.9026 48.1305 69.8995 48.1226 69.9044 48.1115C69.9092 48.1003 69.9172 48.0972 69.9205 48.0958L73.7461 46.5866C73.7493 46.5852 73.7571 46.5821 73.7686 46.587C73.7796 46.5919 73.7827 46.5998 73.7841 46.6031L75.6376 51.3013C75.7802 51.6626 76.1886 51.8398 76.5497 51.6973C76.911 51.5548 77.0883 51.1464 76.9458 50.7852L75.0923 46.0871C74.802 45.3508 73.9665 44.988 73.2301 45.2785L69.4045 46.7877C68.721 47.0574 68.3601 47.7909 68.5435 48.4862L66.4927 49.2431C65.8546 49.4787 65.1618 49.5471 64.4894 49.4405L62.4164 49.1119C62.0329 49.0512 61.6726 49.3129 61.6119 49.6962C61.5512 50.0798 61.8127 50.44 62.1963 50.5008L64.2693 50.8294C65.1789 50.9735 66.116 50.8811 66.9798 50.5623L69.0491 49.7984C69.2737 50.3679 72.8183 59.3526 73.0509 59.9422L70.0336 61.8801L69.9825 61.8424C69.9823 61.8422 69.982 61.842 69.9818 61.8419C69.6586 61.6033 64.4122 57.7316 64.166 57.5498C64.0153 57.4386 63.828 57.3886 63.6125 57.4251C60.6997 57.9204 58.09 56.8847 56.1701 54.88C55.5727 54.2563 54.5981 54.2228 53.951 54.8039C52.0884 56.4767 49.4857 58.1078 47.6646 56.3771C47.4836 56.2053 47.4823 55.8878 47.7571 55.7105C50.0768 54.2182 52.4799 52.123 54.4138 50.1667C54.8951 49.6796 55.5874 49.4532 56.2668 49.5609L58.9357 49.984C59.32 50.0449 59.6795 49.7831 59.7402 49.3997C59.801 49.0162 59.5394 48.6559 59.1559 48.5951L56.4869 48.172C55.3615 47.9937 54.2128 48.3699 53.4138 49.1782C53.1901 49.4044 52.9255 49.6671 52.6272 49.9552C51.7268 49.6359 50.7884 49.4453 49.8338 49.3916C47.0397 49.2347 46.7974 49.2051 46.1629 49.2459C45.6649 49.2776 45.1583 49.193 44.6975 49.0002L43.4583 48.4817C43.6372 47.7904 43.2769 47.056 42.5961 46.7875L38.7706 45.2785C38.034 44.9879 37.1987 45.3507 36.9083 46.0871L32.1007 58.2734C31.8096 59.0114 32.171 59.8446 32.9093 60.1357ZM44.7848 65.7957C44.3727 66.2817 43.6421 66.342 43.156 65.9299C42.6666 65.5149 42.6111 64.7855 43.0209 64.3023L44.76 62.261C45.1623 61.7863 45.8949 61.7081 46.3888 62.1268C46.8759 62.5398 46.9361 63.2684 46.5229 63.7556C46.5227 63.7558 46.5226 63.756 46.5224 63.7562L44.7848 65.7957ZM47.6201 68.2C47.2072 68.687 46.4788 68.7472 45.9914 68.3341C45.502 67.9191 45.4465 67.1898 45.8563 66.7065L47.5955 64.6652C48.0274 64.1555 48.8279 64.111 49.3099 64.6114C49.3131 64.6147 49.3158 64.6184 49.319 64.6218C49.7159 65.0439 49.7418 65.7077 49.3583 66.1599L47.6201 68.2ZM50.4556 70.6041C50.0411 71.093 49.312 71.1496 48.8269 70.7382C48.3375 70.3233 48.2819 69.594 48.6917 69.1107L50.4309 67.0693C50.8441 66.5822 51.5774 66.5259 52.0597 66.9352C52.5457 67.3474 52.6058 68.078 52.1938 68.564C52.1936 68.5642 52.1935 68.5644 52.1933 68.5646L50.4556 70.6041ZM55.0387 70.9559C55.0358 70.9594 55.0333 70.9634 55.0303 70.9668C54.7498 71.2961 53.9768 72.2033 53.2911 73.0082C52.879 73.4943 52.1484 73.5544 51.6623 73.1424C51.1763 72.7303 51.1162 71.9997 51.5272 71.5149L53.2664 69.4735C53.6808 68.9847 54.4105 68.9283 54.8951 69.3394C55.3719 69.7435 55.445 70.4646 55.0387 70.9559ZM42.953 49.7949L44.1546 50.2977C44.814 50.5736 45.5396 50.6952 46.2528 50.6494C46.7905 50.6148 46.9701 50.6394 49.7547 50.7958C50.3265 50.828 50.8918 50.9165 51.4439 51.0601C50.0681 52.3025 48.5231 53.5478 46.9756 54.5415C45.9834 55.1784 45.8364 56.5802 46.6959 57.3969C47.8704 58.513 50.4972 59.7961 54.8905 55.8504C54.9693 55.7797 55.0851 55.7807 55.1542 55.853C57.2824 58.0743 60.2989 59.3151 63.5564 58.8573C63.9255 59.1167 63.2108 58.593 69.1465 62.9736H69.1466C69.7818 63.4424 69.9595 64.3643 69.4622 65.0006C68.9897 65.605 68.1362 65.7221 67.5194 65.2668C66.6861 64.6518 67.3013 65.1199 64.3721 62.8628C64.0642 62.6257 63.6229 62.683 63.3859 62.9906C63.1489 63.2982 63.2061 63.7397 63.5136 63.9768L65.9439 65.8493C66.3626 66.4009 66.3127 67.1981 65.8171 67.6925C65.3298 68.1788 64.5276 68.2248 63.9512 67.7995C63.3938 67.3882 63.8568 67.7406 61.3007 65.7726C60.993 65.5356 60.5514 65.5932 60.3146 65.9009C60.0777 66.2086 60.1351 66.65 60.4428 66.8869L62.5977 68.546C63.0047 69.0724 62.9847 69.8296 62.5403 70.3334C62.0622 70.8754 61.2151 70.9509 60.6115 70.5054C59.6417 69.7897 60.1284 70.1593 58.2607 68.7138C57.9536 68.4761 57.5121 68.5323 57.2743 68.8395C57.0366 69.1466 57.0929 69.5882 57.4 69.8258L58.8939 70.982C59.2338 71.5229 59.1672 72.2312 58.7203 72.6987C58.2325 73.209 57.4198 73.2655 56.8297 72.83L55.8846 72.1325L56.1017 71.8776C56.5346 71.3672 56.7581 70.7062 56.7009 70.0107C56.6428 69.3062 56.308 68.694 55.8045 68.2668C55.2807 67.8228 54.5966 67.5952 53.8689 67.6742C53.8307 66.9949 53.5192 66.3293 52.969 65.8626C52.4472 65.4202 51.7848 65.2076 51.102 65.2634C51.0792 65.2653 51.0564 65.2674 51.0338 65.2699C51.0325 65.2474 51.0318 65.2249 51.0299 65.2024C50.9852 64.6587 50.7733 64.1552 50.425 63.749C50.4229 63.7464 50.4209 63.7439 50.4188 63.7414C49.8647 63.1004 49.0399 62.7766 48.1992 62.867C48.1597 62.1609 47.8396 61.5135 47.2981 61.0543C46.2204 60.1407 44.6007 60.274 43.6883 61.3503L42.6286 62.594L42.0092 62.1587C41.9996 62.1519 41.9899 62.1454 41.98 62.1392L38.8594 60.1711C41.2186 54.1911 40.3349 56.431 42.953 49.7949ZM33.4088 58.7896L38.2163 46.6033C38.2209 46.5917 38.2319 46.5847 38.2437 46.5847C38.2472 46.5847 38.2509 46.5853 38.2544 46.5867L42.0799 48.0959C42.095 48.1018 42.1024 48.119 42.0965 48.134C41.8652 48.7203 37.4402 59.9368 37.2889 60.3203C37.2827 60.3356 37.2662 60.3428 37.2508 60.3368L33.4254 58.8276C33.4102 58.8216 33.4027 58.8047 33.4088 58.7896Z" fill="white"/>
        </g>
        <defs>
            <clipPath id="clip0">
                <rect width="48" height="48" fill="white" transform="translate(32 36)"/>
            </clipPath>
        </defs>
    </symbol>
</svg>